<svg width="226" height="248" viewBox="0 0 226 248" fill="none" xmlns="http://www.w3.org/2000/svg">
<rect width="226" height="248" fill="white"/>
<path d="M0 196C0 189.373 5.37258 184 12 184H57C63.6274 184 69 189.373 69 196V236C69 242.627 63.6274 248 57 248H12C5.37258 248 0 242.627 0 236V196Z" fill="#2563EB"/>
<path d="M157 12C157 5.37258 162.373 0 169 0H214C220.627 0 226 5.37258 226 12V52C226 58.6274 220.627 64 214 64H169C162.373 64 157 58.6274 157 52V12Z" fill="#2563EB"/>
<mask id="path-3-outside-1_0_1" maskUnits="userSpaceOnUse" x="4" y="4" width="218" height="239" fill="black">
<rect fill="white" x="4" y="4" width="218" height="239"/>
<path d="M6 18C6 11.3726 11.3726 6 18 6H208C214.627 6 220 11.3726 220 18V229C220 235.627 214.627 241 208 241H18C11.3726 241 6 235.627 6 229V18Z"/>
</mask>
<path d="M6 18C6 11.3726 11.3726 6 18 6H208C214.627 6 220 11.3726 220 18V229C220 235.627 214.627 241 208 241H18C11.3726 241 6 235.627 6 229V18Z" fill="white"/>
<path d="M18 8H208V4H18V8ZM218 18V229H222V18H218ZM208 239H18V243H208V239ZM8 229V18H4V229H8ZM18 239C12.4771 239 8 234.523 8 229H4C4 236.732 10.268 243 18 243V239ZM218 229C218 234.523 213.523 239 208 239V243C215.732 243 222 236.732 222 229H218ZM208 8C213.523 8 218 12.4772 218 18H222C222 10.268 215.732 4 208 4V8ZM18 4C10.268 4 4 10.268 4 18H8C8 12.4772 12.4772 8 18 8V4Z" fill="#EDEDED" mask="url(#path-3-outside-1_0_1)"/>
<path d="M18 26C18 21.5817 21.5817 18 26 18H60C64.4183 18 68 21.5817 68 26V56C68 60.4183 64.4183 64 60 64H26C21.5817 64 18 60.4183 18 56V26Z" fill="#2563EB"/>
<path d="M29.5 49.5V41C29.5 37.6185 30.9223 34.3755 33.4541 31.9844C35.9858 29.5933 39.4196 28.25 43 28.25C46.5804 28.25 50.0142 29.5933 52.5459 31.9844C55.0777 34.3755 56.5 37.6185 56.5 41V49.5M56.5 50.9167C56.5 51.6681 56.1839 52.3888 55.6213 52.9201C55.0587 53.4515 54.2956 53.75 53.5 53.75H52C51.2044 53.75 50.4413 53.4515 49.8787 52.9201C49.3161 52.3888 49 51.6681 49 50.9167V46.6667C49 45.9152 49.3161 45.1946 49.8787 44.6632C50.4413 44.1318 51.2044 43.8333 52 43.8333H56.5V50.9167ZM29.5 50.9167C29.5 51.6681 29.8161 52.3888 30.3787 52.9201C30.9413 53.4515 31.7044 53.75 32.5 53.75H34C34.7956 53.75 35.5587 53.4515 36.1213 52.9201C36.6839 52.3888 37 51.6681 37 50.9167V46.6667C37 45.9152 36.6839 45.1946 36.1213 44.6632C35.5587 44.1318 34.7956 43.8333 34 43.8333H29.5V50.9167Z" stroke="white" stroke-width="4" stroke-linecap="round" stroke-linejoin="round"/>
<path d="M18 99C18 94.5817 21.5817 91 26 91H200C204.418 91 208 94.5817 208 99V220C208 224.418 204.418 228 200 228H26C21.5817 228 18 224.418 18 220V99Z" fill="white"/>
<path d="M16.54 130L20.71 119.2H21.79L17.725 130H16.54ZM25.12 130L21.055 119.2H22.21L26.38 130H25.12ZM18.61 125.635H24.25V126.715H18.61V125.635ZM30.7476 130.15C30.0476 130.15 29.4226 129.98 28.8726 129.64C28.3326 129.29 27.9026 128.815 27.5826 128.215C27.2726 127.605 27.1176 126.915 27.1176 126.145C27.1176 125.375 27.2726 124.695 27.5826 124.105C27.9026 123.515 28.3326 123.05 28.8726 122.71C29.4226 122.37 30.0426 122.2 30.7326 122.2C31.3026 122.2 31.8126 122.31 32.2626 122.53C32.7226 122.75 33.0976 123.065 33.3876 123.475C33.6876 123.875 33.8776 124.345 33.9576 124.885H32.8476C32.7476 124.395 32.5176 123.995 32.1576 123.685C31.7976 123.375 31.3326 123.22 30.7626 123.22C30.2726 123.22 29.8476 123.34 29.4876 123.58C29.1276 123.82 28.8476 124.16 28.6476 124.6C28.4476 125.04 28.3476 125.555 28.3476 126.145C28.3476 126.735 28.4476 127.255 28.6476 127.705C28.8476 128.155 29.1276 128.505 29.4876 128.755C29.8576 129.005 30.2876 129.13 30.7776 129.13C31.3276 129.13 31.7876 128.98 32.1576 128.68C32.5276 128.37 32.7626 127.97 32.8626 127.48H33.9726C33.8826 128.01 33.6826 128.48 33.3726 128.89C33.0726 129.29 32.6976 129.6 32.2476 129.82C31.7976 130.04 31.2976 130.15 30.7476 130.15ZM38.7163 130.15C38.0163 130.15 37.3913 129.98 36.8413 129.64C36.3013 129.29 35.8713 128.815 35.5513 128.215C35.2413 127.605 35.0863 126.915 35.0863 126.145C35.0863 125.375 35.2413 124.695 35.5513 124.105C35.8713 123.515 36.3013 123.05 36.8413 122.71C37.3913 122.37 38.0113 122.2 38.7013 122.2C39.2713 122.2 39.7813 122.31 40.2313 122.53C40.6913 122.75 41.0663 123.065 41.3563 123.475C41.6563 123.875 41.8463 124.345 41.9263 124.885H40.8163C40.7163 124.395 40.4863 123.995 40.1263 123.685C39.7663 123.375 39.3013 123.22 38.7313 123.22C38.2413 123.22 37.8163 123.34 37.4563 123.58C37.0963 123.82 36.8163 124.16 36.6163 124.6C36.4163 125.04 36.3163 125.555 36.3163 126.145C36.3163 126.735 36.4163 127.255 36.6163 127.705C36.8163 128.155 37.0963 128.505 37.4563 128.755C37.8263 129.005 38.2563 129.13 38.7463 129.13C39.2963 129.13 39.7563 128.98 40.1263 128.68C40.4963 128.37 40.7313 127.97 40.8313 127.48H41.9413C41.8513 128.01 41.6513 128.48 41.3413 128.89C41.0413 129.29 40.6663 129.6 40.2163 129.82C39.7663 130.04 39.2663 130.15 38.7163 130.15ZM46.7901 130.15C46.0601 130.15 45.4151 129.98 44.8551 129.64C44.2951 129.29 43.8551 128.815 43.5351 128.215C43.2151 127.615 43.0551 126.925 43.0551 126.145C43.0551 125.365 43.2101 124.68 43.5201 124.09C43.8401 123.49 44.2851 123.025 44.8551 122.695C45.4251 122.365 46.0801 122.2 46.8201 122.2C47.5301 122.2 48.1451 122.355 48.6651 122.665C49.1951 122.975 49.6001 123.41 49.8801 123.97C50.1701 124.53 50.3151 125.19 50.3151 125.95C50.3151 126.05 50.3101 126.145 50.3001 126.235C50.3001 126.325 50.2901 126.425 50.2701 126.535H43.9551V125.53H49.5351L49.1451 126.085C49.1451 125.165 48.9401 124.46 48.5301 123.97C48.1301 123.47 47.5601 123.22 46.8201 123.22C46.0601 123.22 45.4451 123.485 44.9751 124.015C44.5151 124.535 44.2851 125.24 44.2851 126.13C44.2851 127.04 44.5151 127.77 44.9751 128.32C45.4451 128.86 46.0701 129.13 46.8501 129.13C47.3401 129.13 47.7701 129.025 48.1401 128.815C48.5101 128.595 48.7801 128.285 48.9501 127.885H50.0901C49.8401 128.585 49.4201 129.14 48.8301 129.55C48.2501 129.95 47.5701 130.15 46.7901 130.15ZM54.7169 130.15C53.7769 130.15 53.0269 129.935 52.4669 129.505C51.9069 129.065 51.5869 128.445 51.5069 127.645H52.6619C52.7319 128.135 52.9469 128.51 53.3069 128.77C53.6669 129.03 54.1469 129.16 54.7469 129.16C55.2769 129.16 55.6919 129.06 55.9919 128.86C56.2919 128.66 56.4419 128.375 56.4419 128.005C56.4419 127.745 56.3569 127.52 56.1869 127.33C56.0169 127.13 55.6769 126.965 55.1669 126.835L53.9369 126.52C53.2369 126.34 52.7119 126.065 52.3619 125.695C52.0119 125.315 51.8369 124.865 51.8369 124.345C51.8369 123.685 52.0819 123.165 52.5719 122.785C53.0619 122.395 53.7269 122.2 54.5669 122.2C55.3969 122.2 56.0719 122.4 56.5919 122.8C57.1119 123.2 57.4069 123.755 57.4769 124.465H56.3219C56.2519 124.055 56.0619 123.74 55.7519 123.52C55.4419 123.3 55.0319 123.19 54.5219 123.19C54.0319 123.19 53.6519 123.285 53.3819 123.475C53.1119 123.655 52.9769 123.915 52.9769 124.255C52.9769 124.515 53.0719 124.74 53.2619 124.93C53.4619 125.12 53.7919 125.28 54.2519 125.41L55.4519 125.74C56.1619 125.93 56.6969 126.22 57.0569 126.61C57.4169 127 57.5969 127.47 57.5969 128.02C57.5969 128.69 57.3419 129.215 56.8319 129.595C56.3219 129.965 55.6169 130.15 54.7169 130.15ZM61.9532 130.15C61.0132 130.15 60.2632 129.935 59.7032 129.505C59.1432 129.065 58.8232 128.445 58.7432 127.645H59.8982C59.9682 128.135 60.1832 128.51 60.5432 128.77C60.9032 129.03 61.3832 129.16 61.9832 129.16C62.5132 129.16 62.9282 129.06 63.2282 128.86C63.5282 128.66 63.6782 128.375 63.6782 128.005C63.6782 127.745 63.5932 127.52 63.4232 127.33C63.2532 127.13 62.9132 126.965 62.4032 126.835L61.1732 126.52C60.4732 126.34 59.9482 126.065 59.5982 125.695C59.2482 125.315 59.0732 124.865 59.0732 124.345C59.0732 123.685 59.3182 123.165 59.8082 122.785C60.2982 122.395 60.9632 122.2 61.8032 122.2C62.6332 122.2 63.3082 122.4 63.8282 122.8C64.3482 123.2 64.6432 123.755 64.7132 124.465H63.5582C63.4882 124.055 63.2982 123.74 62.9882 123.52C62.6782 123.3 62.2682 123.19 61.7582 123.19C61.2682 123.19 60.8882 123.285 60.6182 123.475C60.3482 123.655 60.2132 123.915 60.2132 124.255C60.2132 124.515 60.3082 124.74 60.4982 124.93C60.6982 125.12 61.0282 125.28 61.4882 125.41L62.6882 125.74C63.3982 125.93 63.9332 126.22 64.2932 126.61C64.6532 127 64.8332 127.47 64.8332 128.02C64.8332 128.69 64.5782 129.215 64.0682 129.595C63.5582 129.965 62.8532 130.15 61.9532 130.15ZM72.511 130.135C71.661 130.135 71.041 129.945 70.651 129.565C70.271 129.175 70.081 128.615 70.081 127.885V120.565L71.281 120.115V127.87C71.281 128.3 71.391 128.615 71.611 128.815C71.831 129.015 72.191 129.115 72.691 129.115C72.891 129.115 73.061 129.105 73.201 129.085C73.351 129.055 73.471 129.02 73.561 128.98V130C73.461 130.04 73.316 130.07 73.126 130.09C72.946 130.12 72.741 130.135 72.511 130.135ZM68.506 123.37V122.35H73.561V123.37H68.506ZM78.1095 130.15C77.3595 130.15 76.6995 129.975 76.1295 129.625C75.5595 129.275 75.1145 128.8 74.7945 128.2C74.4845 127.59 74.3295 126.905 74.3295 126.145C74.3295 125.375 74.4895 124.695 74.8095 124.105C75.1295 123.515 75.5695 123.05 76.1295 122.71C76.6995 122.37 77.3595 122.2 78.1095 122.2C78.8695 122.2 79.5295 122.37 80.0895 122.71C80.6595 123.05 81.0995 123.515 81.4095 124.105C81.7295 124.695 81.8895 125.375 81.8895 126.145C81.8895 126.905 81.7295 127.59 81.4095 128.2C81.0995 128.8 80.6595 129.275 80.0895 129.625C79.5295 129.975 78.8695 130.15 78.1095 130.15ZM78.1095 129.13C78.6295 129.13 79.0795 129.005 79.4595 128.755C79.8395 128.495 80.1345 128.14 80.3445 127.69C80.5545 127.24 80.6595 126.72 80.6595 126.13C80.6595 125.25 80.4245 124.545 79.9545 124.015C79.4945 123.485 78.8795 123.22 78.1095 123.22C77.3495 123.22 76.7345 123.485 76.2645 124.015C75.7945 124.545 75.5595 125.25 75.5595 126.13C75.5595 126.72 75.6645 127.24 75.8745 127.69C76.0845 128.14 76.3795 128.495 76.7595 128.755C77.1495 129.005 77.5995 129.13 78.1095 129.13ZM91.3872 130C91.3472 129.83 91.3172 129.635 91.2972 129.415C91.2872 129.195 91.2822 128.915 91.2822 128.575H91.2072V124.915C91.2072 124.335 91.0722 123.91 90.8022 123.64C90.5422 123.36 90.1172 123.22 89.5272 123.22C88.9472 123.22 88.4822 123.34 88.1322 123.58C87.7922 123.81 87.6022 124.14 87.5622 124.57H86.4072C86.4572 123.83 86.7672 123.25 87.3372 122.83C87.9072 122.41 88.6522 122.2 89.5722 122.2C90.5222 122.2 91.2272 122.425 91.6872 122.875C92.1472 123.325 92.3772 124 92.3772 124.9V128.575C92.3772 128.795 92.3922 129.025 92.4222 129.265C92.4522 129.495 92.4922 129.74 92.5422 130H91.3872ZM88.7622 130.15C87.9722 130.15 87.3422 129.96 86.8722 129.58C86.4122 129.19 86.1822 128.66 86.1822 127.99C86.1822 127.32 86.4122 126.8 86.8722 126.43C87.3322 126.06 88.0022 125.8 88.8822 125.65L91.5522 125.2V126.19L89.0622 126.58C88.5022 126.67 88.0772 126.82 87.7872 127.03C87.4972 127.24 87.3522 127.545 87.3522 127.945C87.3522 128.335 87.4822 128.63 87.7422 128.83C88.0122 129.03 88.4072 129.13 88.9272 129.13C89.5972 129.13 90.1422 128.98 90.5622 128.68C90.9922 128.37 91.2072 127.97 91.2072 127.48L91.4022 128.545C91.2422 129.055 90.9272 129.45 90.4572 129.73C89.9972 130.01 89.4322 130.15 88.7622 130.15ZM97.0932 130V128.95C98.1732 128.06 99.0732 127.28 99.7932 126.61C100.523 125.94 101.103 125.345 101.533 124.825C101.973 124.305 102.283 123.83 102.463 123.4C102.653 122.96 102.748 122.53 102.748 122.11C102.748 121.49 102.563 121.005 102.193 120.655C101.823 120.305 101.313 120.13 100.663 120.13C99.9932 120.13 99.4532 120.32 99.0432 120.7C98.6332 121.08 98.3832 121.625 98.2932 122.335H97.0032C97.1032 121.355 97.4782 120.565 98.1282 119.965C98.7882 119.355 99.6632 119.05 100.753 119.05C101.763 119.05 102.568 119.32 103.168 119.86C103.768 120.4 104.068 121.14 104.068 122.08C104.068 122.59 103.968 123.1 103.768 123.61C103.578 124.12 103.258 124.655 102.808 125.215C102.368 125.775 101.783 126.395 101.053 127.075C100.333 127.745 99.4382 128.505 98.3682 129.355L98.0832 128.92H104.248V130H97.0932ZM110.02 130V127.15L110.05 126.85V120.685H110.455L105.895 126.925L105.49 126.43H112.69V127.51H104.65V126.58L110.08 119.2H111.31V130H110.02ZM114.334 130V119.2H115.534V130H114.334ZM119.809 130V124.99C119.809 124.41 119.664 123.975 119.374 123.685C119.084 123.395 118.654 123.25 118.084 123.25C117.584 123.25 117.139 123.36 116.749 123.58C116.369 123.8 116.069 124.105 115.849 124.495C115.639 124.885 115.534 125.34 115.534 125.86L115.339 124.045C115.599 123.475 115.994 123.025 116.524 122.695C117.064 122.365 117.674 122.2 118.354 122.2C119.154 122.2 119.794 122.43 120.274 122.89C120.764 123.34 121.009 123.935 121.009 124.675V130H119.809ZM123.313 130V122.35H124.438V124.3H124.513V130H123.313ZM124.513 126.01L124.318 124.195C124.498 123.545 124.818 123.05 125.278 122.71C125.738 122.37 126.268 122.2 126.868 122.2C127.118 122.2 127.288 122.22 127.378 122.26V123.415C127.328 123.395 127.258 123.385 127.168 123.385C127.078 123.375 126.968 123.37 126.838 123.37C126.078 123.37 125.498 123.6 125.098 124.06C124.708 124.51 124.513 125.16 124.513 126.01ZM134.971 130.15C134.271 130.15 133.646 129.98 133.096 129.64C132.556 129.29 132.126 128.815 131.806 128.215C131.496 127.605 131.341 126.915 131.341 126.145C131.341 125.375 131.496 124.695 131.806 124.105C132.126 123.515 132.556 123.05 133.096 122.71C133.646 122.37 134.266 122.2 134.956 122.2C135.526 122.2 136.036 122.31 136.486 122.53C136.946 122.75 137.321 123.065 137.611 123.475C137.911 123.875 138.101 124.345 138.181 124.885H137.071C136.971 124.395 136.741 123.995 136.381 123.685C136.021 123.375 135.556 123.22 134.986 123.22C134.496 123.22 134.071 123.34 133.711 123.58C133.351 123.82 133.071 124.16 132.871 124.6C132.671 125.04 132.571 125.555 132.571 126.145C132.571 126.735 132.671 127.255 132.871 127.705C133.071 128.155 133.351 128.505 133.711 128.755C134.081 129.005 134.511 129.13 135.001 129.13C135.551 129.13 136.011 128.98 136.381 128.68C136.751 128.37 136.986 127.97 137.086 127.48H138.196C138.106 128.01 137.906 128.48 137.596 128.89C137.296 129.29 136.921 129.6 136.471 129.82C136.021 130.04 135.521 130.15 134.971 130.15ZM142.297 130.15C141.797 130.15 141.352 130.05 140.962 129.85C140.572 129.64 140.267 129.35 140.047 128.98C139.827 128.6 139.717 128.165 139.717 127.675V122.35H140.917V127.36C140.917 127.94 141.057 128.375 141.337 128.665C141.627 128.955 142.037 129.1 142.567 129.1C143.047 129.1 143.472 128.99 143.842 128.77C144.212 128.55 144.502 128.245 144.712 127.855C144.932 127.455 145.042 127 145.042 126.49L145.237 128.305C144.987 128.875 144.597 129.325 144.067 129.655C143.537 129.985 142.947 130.15 142.297 130.15ZM145.117 130V128.2H145.042V122.35H146.242V130H145.117ZM151.206 130.15C150.266 130.15 149.516 129.935 148.956 129.505C148.396 129.065 148.076 128.445 147.996 127.645H149.151C149.221 128.135 149.436 128.51 149.796 128.77C150.156 129.03 150.636 129.16 151.236 129.16C151.766 129.16 152.181 129.06 152.481 128.86C152.781 128.66 152.931 128.375 152.931 128.005C152.931 127.745 152.846 127.52 152.676 127.33C152.506 127.13 152.166 126.965 151.656 126.835L150.426 126.52C149.726 126.34 149.201 126.065 148.851 125.695C148.501 125.315 148.326 124.865 148.326 124.345C148.326 123.685 148.571 123.165 149.061 122.785C149.551 122.395 150.216 122.2 151.056 122.2C151.886 122.2 152.561 122.4 153.081 122.8C153.601 123.2 153.896 123.755 153.966 124.465H152.811C152.741 124.055 152.551 123.74 152.241 123.52C151.931 123.3 151.521 123.19 151.011 123.19C150.521 123.19 150.141 123.285 149.871 123.475C149.601 123.655 149.466 123.915 149.466 124.255C149.466 124.515 149.561 124.74 149.751 124.93C149.951 125.12 150.281 125.28 150.741 125.41L151.941 125.74C152.651 125.93 153.186 126.22 153.546 126.61C153.906 127 154.086 127.47 154.086 128.02C154.086 128.69 153.831 129.215 153.321 129.595C152.811 129.965 152.106 130.15 151.206 130.15ZM158.761 130.135C157.911 130.135 157.291 129.945 156.901 129.565C156.521 129.175 156.331 128.615 156.331 127.885V120.565L157.531 120.115V127.87C157.531 128.3 157.641 128.615 157.861 128.815C158.081 129.015 158.441 129.115 158.941 129.115C159.141 129.115 159.311 129.105 159.451 129.085C159.601 129.055 159.721 129.02 159.811 128.98V130C159.711 130.04 159.566 130.07 159.376 130.09C159.196 130.12 158.991 130.135 158.761 130.135ZM154.756 123.37V122.35H159.811V123.37H154.756ZM164.359 130.15C163.609 130.15 162.949 129.975 162.379 129.625C161.809 129.275 161.364 128.8 161.044 128.2C160.734 127.59 160.579 126.905 160.579 126.145C160.579 125.375 160.739 124.695 161.059 124.105C161.379 123.515 161.819 123.05 162.379 122.71C162.949 122.37 163.609 122.2 164.359 122.2C165.119 122.2 165.779 122.37 166.339 122.71C166.909 123.05 167.349 123.515 167.659 124.105C167.979 124.695 168.139 125.375 168.139 126.145C168.139 126.905 167.979 127.59 167.659 128.2C167.349 128.8 166.909 129.275 166.339 129.625C165.779 129.975 165.119 130.15 164.359 130.15ZM164.359 129.13C164.879 129.13 165.329 129.005 165.709 128.755C166.089 128.495 166.384 128.14 166.594 127.69C166.804 127.24 166.909 126.72 166.909 126.13C166.909 125.25 166.674 124.545 166.204 124.015C165.744 123.485 165.129 123.22 164.359 123.22C163.599 123.22 162.984 123.485 162.514 124.015C162.044 124.545 161.809 125.25 161.809 126.13C161.809 126.72 161.914 127.24 162.124 127.69C162.334 128.14 162.629 128.495 163.009 128.755C163.399 129.005 163.849 129.13 164.359 129.13ZM169.939 130V122.35H171.064V124.15H171.139V130H169.939ZM175.099 130V124.93C175.099 124.35 174.969 123.925 174.709 123.655C174.449 123.385 174.074 123.25 173.584 123.25C173.124 123.25 172.709 123.36 172.339 123.58C171.969 123.8 171.674 124.105 171.454 124.495C171.244 124.885 171.139 125.34 171.139 125.86L170.944 124.045C171.204 123.475 171.594 123.025 172.114 122.695C172.634 122.365 173.199 122.2 173.809 122.2C174.549 122.2 175.149 122.42 175.609 122.86C176.069 123.29 176.299 123.875 176.299 124.615V130H175.099ZM180.259 130V124.93C180.259 124.35 180.129 123.925 179.869 123.655C179.609 123.385 179.234 123.25 178.744 123.25C178.284 123.25 177.869 123.36 177.499 123.58C177.129 123.8 176.834 124.105 176.614 124.495C176.404 124.885 176.299 125.34 176.299 125.86L175.999 124.045C176.259 123.475 176.659 123.025 177.199 122.695C177.739 122.365 178.319 122.2 178.939 122.2C179.679 122.2 180.284 122.42 180.754 122.86C181.224 123.29 181.459 123.875 181.459 124.615V130H180.259ZM186.902 130.15C186.172 130.15 185.527 129.98 184.967 129.64C184.407 129.29 183.967 128.815 183.647 128.215C183.327 127.615 183.167 126.925 183.167 126.145C183.167 125.365 183.322 124.68 183.632 124.09C183.952 123.49 184.397 123.025 184.967 122.695C185.537 122.365 186.192 122.2 186.932 122.2C187.642 122.2 188.257 122.355 188.777 122.665C189.307 122.975 189.712 123.41 189.992 123.97C190.282 124.53 190.427 125.19 190.427 125.95C190.427 126.05 190.422 126.145 190.412 126.235C190.412 126.325 190.402 126.425 190.382 126.535H184.067V125.53H189.647L189.257 126.085C189.257 125.165 189.052 124.46 188.642 123.97C188.242 123.47 187.672 123.22 186.932 123.22C186.172 123.22 185.557 123.485 185.087 124.015C184.627 124.535 184.397 125.24 184.397 126.13C184.397 127.04 184.627 127.77 185.087 128.32C185.557 128.86 186.182 129.13 186.962 129.13C187.452 129.13 187.882 129.025 188.252 128.815C188.622 128.595 188.892 128.285 189.062 127.885H190.202C189.952 128.585 189.532 129.14 188.942 129.55C188.362 129.95 187.682 130.15 186.902 130.15ZM192.234 130V122.35H193.359V124.3H193.434V130H192.234ZM193.434 126.01L193.239 124.195C193.419 123.545 193.739 123.05 194.199 122.71C194.659 122.37 195.189 122.2 195.789 122.2C196.039 122.2 196.209 122.22 196.299 122.26V123.415C196.249 123.395 196.179 123.385 196.089 123.385C195.999 123.375 195.889 123.37 195.759 123.37C194.999 123.37 194.419 123.6 194.019 124.06C193.629 124.51 193.434 125.16 193.434 126.01ZM19.795 148.15C18.855 148.15 18.105 147.935 17.545 147.505C16.985 147.065 16.665 146.445 16.585 145.645H17.74C17.81 146.135 18.025 146.51 18.385 146.77C18.745 147.03 19.225 147.16 19.825 147.16C20.355 147.16 20.77 147.06 21.07 146.86C21.37 146.66 21.52 146.375 21.52 146.005C21.52 145.745 21.435 145.52 21.265 145.33C21.095 145.13 20.755 144.965 20.245 144.835L19.015 144.52C18.315 144.34 17.79 144.065 17.44 143.695C17.09 143.315 16.915 142.865 16.915 142.345C16.915 141.685 17.16 141.165 17.65 140.785C18.14 140.395 18.805 140.2 19.645 140.2C20.475 140.2 21.15 140.4 21.67 140.8C22.19 141.2 22.485 141.755 22.555 142.465H21.4C21.33 142.055 21.14 141.74 20.83 141.52C20.52 141.3 20.11 141.19 19.6 141.19C19.11 141.19 18.73 141.285 18.46 141.475C18.19 141.655 18.055 141.915 18.055 142.255C18.055 142.515 18.15 142.74 18.34 142.93C18.54 143.12 18.87 143.28 19.33 143.41L20.53 143.74C21.24 143.93 21.775 144.22 22.135 144.61C22.495 145 22.675 145.47 22.675 146.02C22.675 146.69 22.42 147.215 21.91 147.595C21.4 147.965 20.695 148.15 19.795 148.15ZM27.6885 148.15C26.9585 148.15 26.3135 147.98 25.7535 147.64C25.1935 147.29 24.7535 146.815 24.4335 146.215C24.1135 145.615 23.9535 144.925 23.9535 144.145C23.9535 143.365 24.1085 142.68 24.4185 142.09C24.7385 141.49 25.1835 141.025 25.7535 140.695C26.3235 140.365 26.9785 140.2 27.7185 140.2C28.4285 140.2 29.0435 140.355 29.5635 140.665C30.0935 140.975 30.4985 141.41 30.7785 141.97C31.0685 142.53 31.2135 143.19 31.2135 143.95C31.2135 144.05 31.2085 144.145 31.1985 144.235C31.1985 144.325 31.1885 144.425 31.1685 144.535H24.8535V143.53H30.4335L30.0435 144.085C30.0435 143.165 29.8385 142.46 29.4285 141.97C29.0285 141.47 28.4585 141.22 27.7185 141.22C26.9585 141.22 26.3435 141.485 25.8735 142.015C25.4135 142.535 25.1835 143.24 25.1835 144.13C25.1835 145.04 25.4135 145.77 25.8735 146.32C26.3435 146.86 26.9685 147.13 27.7485 147.13C28.2385 147.13 28.6685 147.025 29.0385 146.815C29.4085 146.595 29.6785 146.285 29.8485 145.885H30.9885C30.7385 146.585 30.3185 147.14 29.7285 147.55C29.1485 147.95 28.4685 148.15 27.6885 148.15ZM33.0203 148V140.35H34.1453V142.3H34.2203V148H33.0203ZM34.2203 144.01L34.0253 142.195C34.2053 141.545 34.5253 141.05 34.9853 140.71C35.4453 140.37 35.9753 140.2 36.5753 140.2C36.8253 140.2 36.9953 140.22 37.0853 140.26V141.415C37.0353 141.395 36.9653 141.385 36.8753 141.385C36.7853 141.375 36.6753 141.37 36.5453 141.37C35.7853 141.37 35.2053 141.6 34.8053 142.06C34.4153 142.51 34.2203 143.16 34.2203 144.01ZM40.8803 148L37.7153 140.35H39.0053L41.6453 147.19H41.1653L43.7903 140.35H45.0203L41.8553 148H40.8803ZM46.3943 148V140.35H47.5943V148H46.3943ZM46.3043 138.61V137.2H47.6843V138.61H46.3043ZM52.9986 148.15C52.2986 148.15 51.6736 147.98 51.1236 147.64C50.5836 147.29 50.1536 146.815 49.8336 146.215C49.5236 145.605 49.3686 144.915 49.3686 144.145C49.3686 143.375 49.5236 142.695 49.8336 142.105C50.1536 141.515 50.5836 141.05 51.1236 140.71C51.6736 140.37 52.2936 140.2 52.9836 140.2C53.5536 140.2 54.0636 140.31 54.5136 140.53C54.9736 140.75 55.3486 141.065 55.6386 141.475C55.9386 141.875 56.1286 142.345 56.2086 142.885H55.0986C54.9986 142.395 54.7686 141.995 54.4086 141.685C54.0486 141.375 53.5836 141.22 53.0136 141.22C52.5236 141.22 52.0986 141.34 51.7386 141.58C51.3786 141.82 51.0986 142.16 50.8986 142.6C50.6986 143.04 50.5986 143.555 50.5986 144.145C50.5986 144.735 50.6986 145.255 50.8986 145.705C51.0986 146.155 51.3786 146.505 51.7386 146.755C52.1086 147.005 52.5386 147.13 53.0286 147.13C53.5786 147.13 54.0386 146.98 54.4086 146.68C54.7786 146.37 55.0136 145.97 55.1136 145.48H56.2236C56.1336 146.01 55.9336 146.48 55.6236 146.89C55.3236 147.29 54.9486 147.6 54.4986 147.82C54.0486 148.04 53.5486 148.15 52.9986 148.15ZM61.0723 148.15C60.3423 148.15 59.6973 147.98 59.1373 147.64C58.5773 147.29 58.1373 146.815 57.8173 146.215C57.4973 145.615 57.3373 144.925 57.3373 144.145C57.3373 143.365 57.4923 142.68 57.8023 142.09C58.1223 141.49 58.5673 141.025 59.1373 140.695C59.7073 140.365 60.3623 140.2 61.1023 140.2C61.8123 140.2 62.4273 140.355 62.9473 140.665C63.4773 140.975 63.8823 141.41 64.1623 141.97C64.4523 142.53 64.5973 143.19 64.5973 143.95C64.5973 144.05 64.5923 144.145 64.5823 144.235C64.5823 144.325 64.5723 144.425 64.5523 144.535H58.2373V143.53H63.8173L63.4273 144.085C63.4273 143.165 63.2223 142.46 62.8123 141.97C62.4123 141.47 61.8423 141.22 61.1023 141.22C60.3423 141.22 59.7273 141.485 59.2573 142.015C58.7973 142.535 58.5673 143.24 58.5673 144.13C58.5673 145.04 58.7973 145.77 59.2573 146.32C59.7273 146.86 60.3523 147.13 61.1323 147.13C61.6223 147.13 62.0523 147.025 62.4223 146.815C62.7923 146.595 63.0623 146.285 63.2323 145.885H64.3723C64.1223 146.585 63.7023 147.14 63.1123 147.55C62.5323 147.95 61.8523 148.15 61.0723 148.15ZM74.102 148C74.062 147.83 74.032 147.635 74.012 147.415C74.002 147.195 73.997 146.915 73.997 146.575H73.922V142.915C73.922 142.335 73.787 141.91 73.517 141.64C73.257 141.36 72.832 141.22 72.242 141.22C71.662 141.22 71.197 141.34 70.847 141.58C70.507 141.81 70.317 142.14 70.277 142.57H69.122C69.172 141.83 69.482 141.25 70.052 140.83C70.622 140.41 71.367 140.2 72.287 140.2C73.237 140.2 73.942 140.425 74.402 140.875C74.862 141.325 75.092 142 75.092 142.9V146.575C75.092 146.795 75.107 147.025 75.137 147.265C75.167 147.495 75.207 147.74 75.257 148H74.102ZM71.477 148.15C70.687 148.15 70.057 147.96 69.587 147.58C69.127 147.19 68.897 146.66 68.897 145.99C68.897 145.32 69.127 144.8 69.587 144.43C70.047 144.06 70.717 143.8 71.597 143.65L74.267 143.2V144.19L71.777 144.58C71.217 144.67 70.792 144.82 70.502 145.03C70.212 145.24 70.067 145.545 70.067 145.945C70.067 146.335 70.197 146.63 70.457 146.83C70.727 147.03 71.122 147.13 71.642 147.13C72.312 147.13 72.857 146.98 73.277 146.68C73.707 146.37 73.922 145.97 73.922 145.48L74.117 146.545C73.957 147.055 73.642 147.45 73.172 147.73C72.712 148.01 72.147 148.15 71.477 148.15ZM80.26 148.135C79.41 148.135 78.79 147.945 78.4 147.565C78.02 147.175 77.83 146.615 77.83 145.885V138.565L79.03 138.115V145.87C79.03 146.3 79.14 146.615 79.36 146.815C79.58 147.015 79.94 147.115 80.44 147.115C80.64 147.115 80.81 147.105 80.95 147.085C81.1 147.055 81.22 147.02 81.31 146.98V148C81.21 148.04 81.065 148.07 80.875 148.09C80.695 148.12 80.49 148.135 80.26 148.135ZM76.255 141.37V140.35H81.31V141.37H76.255ZM86.5172 151.075L88.2272 147.1L88.4972 146.68L91.0022 140.35H92.2322L87.7922 151.075H86.5172ZM88.3622 148.075L84.9272 140.35H86.2472L89.2022 147.265L88.3622 148.075ZM96.6984 148.15C95.9484 148.15 95.2884 147.975 94.7184 147.625C94.1484 147.275 93.7034 146.8 93.3834 146.2C93.0734 145.59 92.9184 144.905 92.9184 144.145C92.9184 143.375 93.0784 142.695 93.3984 142.105C93.7184 141.515 94.1584 141.05 94.7184 140.71C95.2884 140.37 95.9484 140.2 96.6984 140.2C97.4584 140.2 98.1184 140.37 98.6784 140.71C99.2484 141.05 99.6884 141.515 99.9984 142.105C100.318 142.695 100.478 143.375 100.478 144.145C100.478 144.905 100.318 145.59 99.9984 146.2C99.6884 146.8 99.2484 147.275 98.6784 147.625C98.1184 147.975 97.4584 148.15 96.6984 148.15ZM96.6984 147.13C97.2184 147.13 97.6684 147.005 98.0484 146.755C98.4284 146.495 98.7234 146.14 98.9334 145.69C99.1434 145.24 99.2484 144.72 99.2484 144.13C99.2484 143.25 99.0134 142.545 98.5434 142.015C98.0834 141.485 97.4684 141.22 96.6984 141.22C95.9384 141.22 95.3234 141.485 94.8534 142.015C94.3834 142.545 94.1484 143.25 94.1484 144.13C94.1484 144.72 94.2534 145.24 94.4634 145.69C94.6734 146.14 94.9684 146.495 95.3484 146.755C95.7384 147.005 96.1884 147.13 96.6984 147.13ZM104.768 148.15C104.268 148.15 103.823 148.05 103.433 147.85C103.043 147.64 102.738 147.35 102.518 146.98C102.298 146.6 102.188 146.165 102.188 145.675V140.35H103.388V145.36C103.388 145.94 103.528 146.375 103.808 146.665C104.098 146.955 104.508 147.1 105.038 147.1C105.518 147.1 105.943 146.99 106.313 146.77C106.683 146.55 106.973 146.245 107.183 145.855C107.403 145.455 107.513 145 107.513 144.49L107.708 146.305C107.458 146.875 107.068 147.325 106.538 147.655C106.008 147.985 105.418 148.15 104.768 148.15ZM107.588 148V146.2H107.513V140.35H108.713V148H107.588ZM111.111 148V140.35H112.236V142.3H112.311V148H111.111ZM112.311 144.01L112.116 142.195C112.296 141.545 112.616 141.05 113.076 140.71C113.536 140.37 114.066 140.2 114.666 140.2C114.916 140.2 115.086 140.22 115.176 140.26V141.415C115.126 141.395 115.056 141.385 114.966 141.385C114.876 141.375 114.766 141.37 114.636 141.37C113.876 141.37 113.296 141.6 112.896 142.06C112.506 142.51 112.311 143.16 112.311 144.01ZM119.739 148V140.35H120.864V142.3H120.939V148H119.739ZM120.939 144.01L120.744 142.195C120.924 141.545 121.244 141.05 121.704 140.71C122.164 140.37 122.694 140.2 123.294 140.2C123.544 140.2 123.714 140.22 123.804 140.26V141.415C123.754 141.395 123.684 141.385 123.594 141.385C123.504 141.375 123.394 141.37 123.264 141.37C122.504 141.37 121.924 141.6 121.524 142.06C121.134 142.51 120.939 143.16 120.939 144.01ZM128.235 148.15C127.505 148.15 126.86 147.98 126.3 147.64C125.74 147.29 125.3 146.815 124.98 146.215C124.66 145.615 124.5 144.925 124.5 144.145C124.5 143.365 124.655 142.68 124.965 142.09C125.285 141.49 125.73 141.025 126.3 140.695C126.87 140.365 127.525 140.2 128.265 140.2C128.975 140.2 129.59 140.355 130.11 140.665C130.64 140.975 131.045 141.41 131.325 141.97C131.615 142.53 131.76 143.19 131.76 143.95C131.76 144.05 131.755 144.145 131.745 144.235C131.745 144.325 131.735 144.425 131.715 144.535H125.4V143.53H130.98L130.59 144.085C130.59 143.165 130.385 142.46 129.975 141.97C129.575 141.47 129.005 141.22 128.265 141.22C127.505 141.22 126.89 141.485 126.42 142.015C125.96 142.535 125.73 143.24 125.73 144.13C125.73 145.04 125.96 145.77 126.42 146.32C126.89 146.86 127.515 147.13 128.295 147.13C128.785 147.13 129.215 147.025 129.585 146.815C129.955 146.595 130.225 146.285 130.395 145.885H131.535C131.285 146.585 130.865 147.14 130.275 147.55C129.695 147.95 129.015 148.15 128.235 148.15ZM138.218 148C138.178 147.83 138.148 147.635 138.128 147.415C138.118 147.195 138.113 146.915 138.113 146.575H138.038V142.915C138.038 142.335 137.903 141.91 137.633 141.64C137.373 141.36 136.948 141.22 136.358 141.22C135.778 141.22 135.313 141.34 134.963 141.58C134.623 141.81 134.433 142.14 134.393 142.57H133.238C133.288 141.83 133.598 141.25 134.168 140.83C134.738 140.41 135.483 140.2 136.403 140.2C137.353 140.2 138.058 140.425 138.518 140.875C138.978 141.325 139.208 142 139.208 142.9V146.575C139.208 146.795 139.223 147.025 139.253 147.265C139.283 147.495 139.323 147.74 139.373 148H138.218ZM135.593 148.15C134.803 148.15 134.173 147.96 133.703 147.58C133.243 147.19 133.013 146.66 133.013 145.99C133.013 145.32 133.243 144.8 133.703 144.43C134.163 144.06 134.833 143.8 135.713 143.65L138.383 143.2V144.19L135.893 144.58C135.333 144.67 134.908 144.82 134.618 145.03C134.328 145.24 134.183 145.545 134.183 145.945C134.183 146.335 134.313 146.63 134.573 146.83C134.843 147.03 135.238 147.13 135.758 147.13C136.428 147.13 136.973 146.98 137.393 146.68C137.823 146.37 138.038 145.97 138.038 145.48L138.233 146.545C138.073 147.055 137.758 147.45 137.288 147.73C136.828 148.01 136.263 148.15 135.593 148.15ZM144.551 148.15C143.851 148.15 143.226 147.98 142.676 147.64C142.136 147.29 141.706 146.815 141.386 146.215C141.076 145.605 140.921 144.915 140.921 144.145C140.921 143.375 141.076 142.695 141.386 142.105C141.706 141.515 142.136 141.05 142.676 140.71C143.226 140.37 143.846 140.2 144.536 140.2C145.106 140.2 145.616 140.31 146.066 140.53C146.526 140.75 146.901 141.065 147.191 141.475C147.491 141.875 147.681 142.345 147.761 142.885H146.651C146.551 142.395 146.321 141.995 145.961 141.685C145.601 141.375 145.136 141.22 144.566 141.22C144.076 141.22 143.651 141.34 143.291 141.58C142.931 141.82 142.651 142.16 142.451 142.6C142.251 143.04 142.151 143.555 142.151 144.145C142.151 144.735 142.251 145.255 142.451 145.705C142.651 146.155 142.931 146.505 143.291 146.755C143.661 147.005 144.091 147.13 144.581 147.13C145.131 147.13 145.591 146.98 145.961 146.68C146.331 146.37 146.566 145.97 146.666 145.48H147.776C147.686 146.01 147.486 146.48 147.176 146.89C146.876 147.29 146.501 147.6 146.051 147.82C145.601 148.04 145.101 148.15 144.551 148.15ZM149.519 148V137.2H150.719V148H149.519ZM154.994 148V142.99C154.994 142.41 154.849 141.975 154.559 141.685C154.269 141.395 153.839 141.25 153.269 141.25C152.769 141.25 152.324 141.36 151.934 141.58C151.554 141.8 151.254 142.105 151.034 142.495C150.824 142.885 150.719 143.34 150.719 143.86L150.524 142.045C150.784 141.475 151.179 141.025 151.709 140.695C152.249 140.365 152.859 140.2 153.539 140.2C154.339 140.2 154.979 140.43 155.459 140.89C155.949 141.34 156.194 141.935 156.194 142.675V148H154.994ZM163.062 148L160.722 140.35H161.937L163.737 146.905H163.437L165.597 140.35H166.572L168.747 146.905H168.447L170.232 140.35H171.387L169.047 148H168.072L165.912 141.595H166.227L164.037 148H163.062ZM173.001 148V137.2H174.201V148H173.001ZM178.476 148V142.99C178.476 142.41 178.331 141.975 178.041 141.685C177.751 141.395 177.321 141.25 176.751 141.25C176.251 141.25 175.806 141.36 175.416 141.58C175.036 141.8 174.736 142.105 174.516 142.495C174.306 142.885 174.201 143.34 174.201 143.86L174.006 142.045C174.266 141.475 174.661 141.025 175.191 140.695C175.731 140.365 176.341 140.2 177.021 140.2C177.821 140.2 178.461 140.43 178.941 140.89C179.431 141.34 179.676 141.935 179.676 142.675V148H178.476ZM185.115 148.15C184.385 148.15 183.74 147.98 183.18 147.64C182.62 147.29 182.18 146.815 181.86 146.215C181.54 145.615 181.38 144.925 181.38 144.145C181.38 143.365 181.535 142.68 181.845 142.09C182.165 141.49 182.61 141.025 183.18 140.695C183.75 140.365 184.405 140.2 185.145 140.2C185.855 140.2 186.47 140.355 186.99 140.665C187.52 140.975 187.925 141.41 188.205 141.97C188.495 142.53 188.64 143.19 188.64 143.95C188.64 144.05 188.635 144.145 188.625 144.235C188.625 144.325 188.615 144.425 188.595 144.535H182.28V143.53H187.86L187.47 144.085C187.47 143.165 187.265 142.46 186.855 141.97C186.455 141.47 185.885 141.22 185.145 141.22C184.385 141.22 183.77 141.485 183.3 142.015C182.84 142.535 182.61 143.24 182.61 144.13C182.61 145.04 182.84 145.77 183.3 146.32C183.77 146.86 184.395 147.13 185.175 147.13C185.665 147.13 186.095 147.025 186.465 146.815C186.835 146.595 187.105 146.285 187.275 145.885H188.415C188.165 146.585 187.745 147.14 187.155 147.55C186.575 147.95 185.895 148.15 185.115 148.15ZM190.447 148V140.35H191.572V142.15H191.647V148H190.447ZM195.922 148V142.99C195.922 142.41 195.777 141.975 195.487 141.685C195.197 141.395 194.767 141.25 194.197 141.25C193.697 141.25 193.252 141.36 192.862 141.58C192.482 141.8 192.182 142.105 191.962 142.495C191.752 142.885 191.647 143.34 191.647 143.86L191.452 142.045C191.712 141.475 192.107 141.025 192.637 140.695C193.177 140.365 193.787 140.2 194.467 140.2C195.267 140.2 195.907 140.43 196.387 140.89C196.877 141.34 197.122 141.935 197.122 142.675V148H195.922ZM20.335 166.15C19.605 166.15 18.96 165.98 18.4 165.64C17.84 165.29 17.4 164.815 17.08 164.215C16.76 163.615 16.6 162.925 16.6 162.145C16.6 161.365 16.755 160.68 17.065 160.09C17.385 159.49 17.83 159.025 18.4 158.695C18.97 158.365 19.625 158.2 20.365 158.2C21.075 158.2 21.69 158.355 22.21 158.665C22.74 158.975 23.145 159.41 23.425 159.97C23.715 160.53 23.86 161.19 23.86 161.95C23.86 162.05 23.855 162.145 23.845 162.235C23.845 162.325 23.835 162.425 23.815 162.535H17.5V161.53H23.08L22.69 162.085C22.69 161.165 22.485 160.46 22.075 159.97C21.675 159.47 21.105 159.22 20.365 159.22C19.605 159.22 18.99 159.485 18.52 160.015C18.06 160.535 17.83 161.24 17.83 162.13C17.83 163.04 18.06 163.77 18.52 164.32C18.99 164.86 19.615 165.13 20.395 165.13C20.885 165.13 21.315 165.025 21.685 164.815C22.055 164.595 22.325 164.285 22.495 163.885H23.635C23.385 164.585 22.965 165.14 22.375 165.55C21.795 165.95 21.115 166.15 20.335 166.15ZM27.726 166L24.561 158.35H25.851L28.491 165.19H28.011L30.636 158.35H31.866L28.701 166H27.726ZM36.2871 166.15C35.5571 166.15 34.9121 165.98 34.3521 165.64C33.7921 165.29 33.3521 164.815 33.0321 164.215C32.7121 163.615 32.5521 162.925 32.5521 162.145C32.5521 161.365 32.7071 160.68 33.0171 160.09C33.3371 159.49 33.7821 159.025 34.3521 158.695C34.9221 158.365 35.5771 158.2 36.3171 158.2C37.0271 158.2 37.6421 158.355 38.1621 158.665C38.6921 158.975 39.0971 159.41 39.3771 159.97C39.6671 160.53 39.8121 161.19 39.8121 161.95C39.8121 162.05 39.8071 162.145 39.7971 162.235C39.7971 162.325 39.7871 162.425 39.7671 162.535H33.4521V161.53H39.0321L38.6421 162.085C38.6421 161.165 38.4371 160.46 38.0271 159.97C37.6271 159.47 37.0571 159.22 36.3171 159.22C35.5571 159.22 34.9421 159.485 34.4721 160.015C34.0121 160.535 33.7821 161.24 33.7821 162.13C33.7821 163.04 34.0121 163.77 34.4721 164.32C34.9421 164.86 35.5671 165.13 36.3471 165.13C36.8371 165.13 37.2671 165.025 37.6371 164.815C38.0071 164.595 38.2771 164.285 38.4471 163.885H39.5871C39.3371 164.585 38.9171 165.14 38.3271 165.55C37.7471 165.95 37.0671 166.15 36.2871 166.15ZM41.6189 166V158.35H42.7439V160.3H42.8189V166H41.6189ZM42.8189 162.01L42.6239 160.195C42.8039 159.545 43.1239 159.05 43.5839 158.71C44.0439 158.37 44.5739 158.2 45.1739 158.2C45.4239 158.2 45.5939 158.22 45.6839 158.26V159.415C45.6339 159.395 45.5639 159.385 45.4739 159.385C45.3839 159.375 45.2739 159.37 45.1439 159.37C44.3839 159.37 43.8039 159.6 43.4039 160.06C43.0139 160.51 42.8189 161.16 42.8189 162.01ZM50.9069 169.075L52.6169 165.1L52.8869 164.68L55.3919 158.35H56.6219L52.1819 169.075H50.9069ZM52.7519 166.075L49.3169 158.35H50.6369L53.5919 165.265L52.7519 166.075ZM61.088 166.15C60.338 166.15 59.678 165.975 59.108 165.625C58.538 165.275 58.093 164.8 57.773 164.2C57.463 163.59 57.308 162.905 57.308 162.145C57.308 161.375 57.468 160.695 57.788 160.105C58.108 159.515 58.548 159.05 59.108 158.71C59.678 158.37 60.338 158.2 61.088 158.2C61.848 158.2 62.508 158.37 63.068 158.71C63.638 159.05 64.078 159.515 64.388 160.105C64.708 160.695 64.868 161.375 64.868 162.145C64.868 162.905 64.708 163.59 64.388 164.2C64.078 164.8 63.638 165.275 63.068 165.625C62.508 165.975 61.848 166.15 61.088 166.15ZM61.088 165.13C61.608 165.13 62.058 165.005 62.438 164.755C62.818 164.495 63.113 164.14 63.323 163.69C63.533 163.24 63.638 162.72 63.638 162.13C63.638 161.25 63.403 160.545 62.933 160.015C62.473 159.485 61.858 159.22 61.088 159.22C60.328 159.22 59.713 159.485 59.243 160.015C58.773 160.545 58.538 161.25 58.538 162.13C58.538 162.72 58.643 163.24 58.853 163.69C59.063 164.14 59.358 164.495 59.738 164.755C60.128 165.005 60.578 165.13 61.088 165.13ZM69.1578 166.15C68.6578 166.15 68.2128 166.05 67.8228 165.85C67.4328 165.64 67.1278 165.35 66.9078 164.98C66.6878 164.6 66.5778 164.165 66.5778 163.675V158.35H67.7778V163.36C67.7778 163.94 67.9178 164.375 68.1978 164.665C68.4878 164.955 68.8978 165.1 69.4278 165.1C69.9078 165.1 70.3328 164.99 70.7028 164.77C71.0728 164.55 71.3628 164.245 71.5728 163.855C71.7928 163.455 71.9028 163 71.9028 162.49L72.0978 164.305C71.8478 164.875 71.4578 165.325 70.9278 165.655C70.3978 165.985 69.8078 166.15 69.1578 166.15ZM71.9778 166V164.2H71.9028V158.35H73.1028V166H71.9778ZM78.5037 166V158.35H79.6287V160.15H79.7037V166H78.5037ZM83.9787 166V160.99C83.9787 160.41 83.8337 159.975 83.5437 159.685C83.2537 159.395 82.8237 159.25 82.2537 159.25C81.7537 159.25 81.3087 159.36 80.9187 159.58C80.5387 159.8 80.2387 160.105 80.0187 160.495C79.8087 160.885 79.7037 161.34 79.7037 161.86L79.5087 160.045C79.7687 159.475 80.1637 159.025 80.6937 158.695C81.2337 158.365 81.8437 158.2 82.5237 158.2C83.3237 158.2 83.9637 158.43 84.4437 158.89C84.9337 159.34 85.1787 159.935 85.1787 160.675V166H83.9787ZM90.6182 166.15C89.8882 166.15 89.2432 165.98 88.6832 165.64C88.1232 165.29 87.6832 164.815 87.3632 164.215C87.0432 163.615 86.8832 162.925 86.8832 162.145C86.8832 161.365 87.0382 160.68 87.3482 160.09C87.6682 159.49 88.1132 159.025 88.6832 158.695C89.2532 158.365 89.9082 158.2 90.6482 158.2C91.3582 158.2 91.9732 158.355 92.4932 158.665C93.0232 158.975 93.4282 159.41 93.7082 159.97C93.9982 160.53 94.1432 161.19 94.1432 161.95C94.1432 162.05 94.1382 162.145 94.1282 162.235C94.1282 162.325 94.1182 162.425 94.0982 162.535H87.7832V161.53H93.3632L92.9732 162.085C92.9732 161.165 92.7682 160.46 92.3582 159.97C91.9582 159.47 91.3882 159.22 90.6482 159.22C89.8882 159.22 89.2732 159.485 88.8032 160.015C88.3432 160.535 88.1132 161.24 88.1132 162.13C88.1132 163.04 88.3432 163.77 88.8032 164.32C89.2732 164.86 89.8982 165.13 90.6782 165.13C91.1682 165.13 91.5982 165.025 91.9682 164.815C92.3382 164.595 92.6082 164.285 92.7782 163.885H93.9182C93.6682 164.585 93.2482 165.14 92.6582 165.55C92.0782 165.95 91.3982 166.15 90.6182 166.15ZM99.085 166.15C98.355 166.15 97.71 165.98 97.15 165.64C96.59 165.29 96.15 164.815 95.83 164.215C95.51 163.615 95.35 162.925 95.35 162.145C95.35 161.365 95.505 160.68 95.815 160.09C96.135 159.49 96.58 159.025 97.15 158.695C97.72 158.365 98.375 158.2 99.115 158.2C99.825 158.2 100.44 158.355 100.96 158.665C101.49 158.975 101.895 159.41 102.175 159.97C102.465 160.53 102.61 161.19 102.61 161.95C102.61 162.05 102.605 162.145 102.595 162.235C102.595 162.325 102.585 162.425 102.565 162.535H96.25V161.53H101.83L101.44 162.085C101.44 161.165 101.235 160.46 100.825 159.97C100.425 159.47 99.855 159.22 99.115 159.22C98.355 159.22 97.74 159.485 97.27 160.015C96.81 160.535 96.58 161.24 96.58 162.13C96.58 163.04 96.81 163.77 97.27 164.32C97.74 164.86 98.365 165.13 99.145 165.13C99.635 165.13 100.065 165.025 100.435 164.815C100.805 164.595 101.075 164.285 101.245 163.885H102.385C102.135 164.585 101.715 165.14 101.125 165.55C100.545 165.95 99.865 166.15 99.085 166.15ZM109.982 166V164.215L110.132 164.26C109.942 164.84 109.592 165.3 109.082 165.64C108.582 165.98 107.982 166.15 107.282 166.15C106.592 166.15 105.987 165.985 105.467 165.655C104.957 165.325 104.557 164.865 104.267 164.275C103.987 163.685 103.847 162.995 103.847 162.205C103.847 161.405 103.992 160.705 104.282 160.105C104.572 159.505 104.977 159.04 105.497 158.71C106.017 158.38 106.627 158.215 107.327 158.215C108.047 158.215 108.652 158.39 109.142 158.74C109.632 159.09 109.967 159.585 110.147 160.225L109.907 160.255V155.2H111.107V166H109.982ZM107.507 165.1C108.277 165.1 108.877 164.84 109.307 164.32C109.747 163.79 109.967 163.07 109.967 162.16C109.967 161.27 109.747 160.565 109.307 160.045C108.867 159.525 108.267 159.265 107.507 159.265C106.747 159.265 106.152 159.525 105.722 160.045C105.292 160.565 105.077 161.285 105.077 162.205C105.077 163.105 105.292 163.815 105.722 164.335C106.152 164.845 106.747 165.1 107.507 165.1ZM113.453 166V164.455H114.998V166H113.453Z" fill="black"/>
<path d="M16.9695 96V94.5724L20.7567 90.8597C21.119 90.494 21.4208 90.169 21.6623 89.8849C21.9038 89.6009 22.0849 89.3256 22.2056 89.0593C22.3263 88.793 22.3867 88.5089 22.3867 88.207C22.3867 87.8626 22.3086 87.5678 22.1523 87.3228C21.9961 87.0742 21.7812 86.8825 21.5078 86.7475C21.2344 86.6126 20.9237 86.5451 20.5756 86.5451C20.217 86.5451 19.9027 86.6197 19.6328 86.7688C19.3629 86.9144 19.1534 87.1222 19.0043 87.392C18.8587 87.6619 18.7859 87.9833 18.7859 88.3562H16.9055C16.9055 87.6637 17.0636 87.0618 17.3796 86.5504C17.6957 86.0391 18.1307 85.6431 18.6847 85.3626C19.2422 85.082 19.8814 84.9418 20.6023 84.9418C21.3338 84.9418 21.9766 85.0785 22.5305 85.3519C23.0845 85.6254 23.5142 86 23.8196 86.4759C24.1286 86.9517 24.283 87.495 24.283 88.1058C24.283 88.5142 24.2049 88.9155 24.0487 89.3097C23.8924 89.7038 23.6172 90.1406 23.223 90.62C22.8324 91.0994 22.2837 91.68 21.5771 92.3619L19.6967 94.2741V94.3487H24.4482V96H16.9695ZM25.8544 93.9759V92.4045L30.4833 85.0909H31.7937V87.3281H30.9947L27.8786 92.266V92.3512H34.3398V93.9759H25.8544ZM31.0586 96V93.4964L31.0799 92.7933V85.0909H32.9442V96H31.0586ZM40.5162 84.5795L37.0005 97.6406H35.312L38.8276 84.5795H40.5162ZM42.1248 96L46.7644 86.8168V86.7422H41.3791V85.0909H48.8098V86.7795L44.1756 96H42.1248ZM60.2849 88.0898C60.2352 87.6246 60.0257 87.2624 59.6563 87.0032C59.2906 86.744 58.8147 86.6143 58.2288 86.6143C57.8169 86.6143 57.4635 86.6765 57.1688 86.8008C56.874 86.9251 56.6485 87.0937 56.4923 87.3068C56.336 87.5199 56.2561 87.7631 56.2526 88.0366C56.2526 88.2638 56.3041 88.4609 56.407 88.6278C56.5136 88.7947 56.6574 88.9368 56.8385 89.054C57.0196 89.1676 57.2203 89.2635 57.4404 89.3416C57.6606 89.4197 57.8825 89.4854 58.1063 89.5387L59.129 89.7944C59.5409 89.8903 59.9369 90.0199 60.3169 90.1832C60.7004 90.3466 61.0431 90.5526 61.3449 90.8011C61.6503 91.0497 61.8918 91.3498 62.0693 91.7013C62.2469 92.0529 62.3357 92.4648 62.3357 92.9371C62.3357 93.5763 62.1723 94.1392 61.8456 94.6257C61.5189 95.1087 61.0466 95.4869 60.4287 95.7603C59.8144 96.0302 59.0704 96.1651 58.1968 96.1651C57.3481 96.1651 56.6112 96.0337 55.9862 95.771C55.3648 95.5082 54.8783 95.1246 54.5267 94.6204C54.1787 94.1161 53.9905 93.5018 53.9621 92.7773H55.9063C55.9347 93.1573 56.0519 93.4734 56.2579 93.7255C56.4639 93.9776 56.732 94.1658 57.0622 94.2901C57.396 94.4144 57.7689 94.4766 58.1808 94.4766C58.6105 94.4766 58.9869 94.4126 59.3101 94.2848C59.6368 94.1534 59.8925 93.9723 60.0771 93.7415C60.2618 93.5071 60.3559 93.2337 60.3595 92.9212C60.3559 92.6371 60.2725 92.4027 60.1091 92.218C59.9458 92.0298 59.7167 91.8736 59.422 91.7493C59.1308 91.6214 58.7899 91.5078 58.3992 91.4084L57.1581 91.0888C56.2597 90.858 55.5494 90.5082 55.0274 90.0394C54.509 89.5671 54.2497 88.9403 54.2497 88.1591C54.2497 87.5163 54.4237 86.9535 54.7718 86.4705C55.1233 85.9876 55.6009 85.6129 56.2046 85.3466C56.8083 85.0767 57.4919 84.9418 58.2554 84.9418C59.0296 84.9418 59.7078 85.0767 60.2902 85.3466C60.8762 85.6129 61.336 85.984 61.6698 86.4599C62.0036 86.9322 62.1759 87.4755 62.1865 88.0898H60.2849ZM69.2271 92.5589V87.8182H71.1554V96H69.2857V94.5458H69.2005C69.0158 95.0039 68.7122 95.3786 68.2896 95.6697C67.8706 95.9609 67.3539 96.1065 66.7395 96.1065C66.2033 96.1065 65.7292 95.9876 65.3173 95.7496C64.9089 95.5082 64.5893 95.1584 64.3585 94.7003C64.1277 94.2386 64.0123 93.6811 64.0123 93.0277V87.8182H65.9405V92.7294C65.9405 93.2479 66.0826 93.6598 66.3667 93.9652C66.6507 94.2706 67.0236 94.4233 67.4853 94.4233C67.7694 94.4233 68.0446 94.354 68.3109 94.2156C68.5772 94.0771 68.7956 93.8711 68.9661 93.5977C69.1401 93.3207 69.2271 92.9744 69.2271 92.5589ZM73.1382 99.0682V87.8182H75.0345V89.1712H75.1464C75.2458 88.9723 75.3861 88.761 75.5672 88.5373C75.7483 88.31 75.9933 88.1165 76.3023 87.9567C76.6112 87.7933 77.0054 87.7116 77.4848 87.7116C78.1169 87.7116 78.6869 87.8732 79.1947 88.1964C79.7061 88.516 80.1109 88.9901 80.4092 89.6186C80.711 90.2436 80.8619 91.0107 80.8619 91.9197C80.8619 92.8182 80.7146 93.5817 80.4198 94.2102C80.1251 94.8388 79.7238 95.3182 79.216 95.6484C78.7082 95.9787 78.1329 96.1438 77.4901 96.1438C77.0214 96.1438 76.6325 96.0657 76.3236 95.9094C76.0146 95.7532 75.7661 95.565 75.5779 95.3448C75.3932 95.1211 75.2494 94.9098 75.1464 94.7109H75.0665V99.0682H73.1382ZM75.0292 91.9091C75.0292 92.4382 75.1038 92.9016 75.2529 93.2994C75.4056 93.6971 75.624 94.0078 75.9081 94.2315C76.1958 94.4517 76.5438 94.5618 76.9521 94.5618C77.3783 94.5618 77.7352 94.4482 78.0228 94.2209C78.3105 93.9901 78.5271 93.6758 78.6727 93.2781C78.8218 92.8768 78.8964 92.4205 78.8964 91.9091C78.8964 91.4013 78.8236 90.9503 78.678 90.5561C78.5324 90.1619 78.3158 89.853 78.0281 89.6293C77.7405 89.4055 77.3818 89.2937 76.9521 89.2937C76.5402 89.2937 76.1904 89.402 75.9028 89.6186C75.6151 89.8352 75.3968 90.1388 75.2476 90.5295C75.102 90.9201 75.0292 91.38 75.0292 91.9091ZM82.5132 99.0682V87.8182H84.4095V89.1712H84.5214C84.6208 88.9723 84.7611 88.761 84.9422 88.5373C85.1233 88.31 85.3683 88.1165 85.6773 87.9567C85.9862 87.7933 86.3804 87.7116 86.8598 87.7116C87.4919 87.7116 88.0619 87.8732 88.5697 88.1964C89.0811 88.516 89.4859 88.9901 89.7842 89.6186C90.086 90.2436 90.2369 91.0107 90.2369 91.9197C90.2369 92.8182 90.0896 93.5817 89.7948 94.2102C89.5001 94.8388 89.0988 95.3182 88.591 95.6484C88.0832 95.9787 87.5079 96.1438 86.8651 96.1438C86.3964 96.1438 86.0075 96.0657 85.6986 95.9094C85.3896 95.7532 85.1411 95.565 84.9529 95.3448C84.7682 95.1211 84.6244 94.9098 84.5214 94.7109H84.4415V99.0682H82.5132ZM84.4042 91.9091C84.4042 92.4382 84.4788 92.9016 84.6279 93.2994C84.7806 93.6971 84.999 94.0078 85.2831 94.2315C85.5708 94.4517 85.9188 94.5618 86.3271 94.5618C86.7533 94.5618 87.1102 94.4482 87.3978 94.2209C87.6855 93.9901 87.9021 93.6758 88.0477 93.2781C88.1968 92.8768 88.2714 92.4205 88.2714 91.9091C88.2714 91.4013 88.1986 90.9503 88.053 90.5561C87.9074 90.1619 87.6908 89.853 87.4031 89.6293C87.1155 89.4055 86.7568 89.2937 86.3271 89.2937C85.9152 89.2937 85.5654 89.402 85.2778 89.6186C84.9901 89.8352 84.7718 90.1388 84.6226 90.5295C84.477 90.9201 84.4042 91.38 84.4042 91.9091ZM95.4571 96.1598C94.6581 96.1598 93.9656 95.984 93.3797 95.6325C92.7938 95.2809 92.3392 94.7891 92.0161 94.157C91.6965 93.5249 91.5367 92.7862 91.5367 91.9411C91.5367 91.0959 91.6965 90.3555 92.0161 89.7198C92.3392 89.0842 92.7938 88.5906 93.3797 88.239C93.9656 87.8874 94.6581 87.7116 95.4571 87.7116C96.2561 87.7116 96.9486 87.8874 97.5345 88.239C98.1205 88.5906 98.5732 89.0842 98.8928 89.7198C99.216 90.3555 99.3776 91.0959 99.3776 91.9411C99.3776 92.7862 99.216 93.5249 98.8928 94.157C98.5732 94.7891 98.1205 95.2809 97.5345 95.6325C96.9486 95.984 96.2561 96.1598 95.4571 96.1598ZM95.4678 94.6151C95.901 94.6151 96.2632 94.4961 96.5544 94.2582C96.8456 94.0167 97.0622 93.6935 97.2043 93.2887C97.3499 92.8839 97.4227 92.4329 97.4227 91.9357C97.4227 91.435 97.3499 90.9822 97.2043 90.5774C97.0622 90.169 96.8456 89.8441 96.5544 89.6026C96.2632 89.3612 95.901 89.2404 95.4678 89.2404C95.0239 89.2404 94.6546 89.3612 94.3598 89.6026C94.0686 89.8441 93.8502 90.169 93.7046 90.5774C93.5626 90.9822 93.4916 91.435 93.4916 91.9357C93.4916 92.4329 93.5626 92.8839 93.7046 93.2887C93.8502 93.6935 94.0686 94.0167 94.3598 94.2582C94.6546 94.4961 95.0239 94.6151 95.4678 94.6151ZM101.014 96V87.8182H102.884V89.1818H102.969C103.118 88.7095 103.374 88.3455 103.736 88.0898C104.102 87.8306 104.519 87.701 104.988 87.701C105.094 87.701 105.213 87.7063 105.345 87.717C105.48 87.7241 105.592 87.7365 105.68 87.7543V89.5281C105.599 89.4996 105.469 89.4748 105.292 89.4535C105.118 89.4286 104.949 89.4162 104.786 89.4162C104.434 89.4162 104.118 89.4925 103.837 89.6452C103.56 89.7944 103.342 90.0021 103.182 90.2685C103.022 90.5348 102.942 90.842 102.942 91.19V96H101.014ZM111.487 87.8182V89.3097H106.783V87.8182H111.487ZM107.944 85.858H109.873V93.5391C109.873 93.7983 109.912 93.9972 109.99 94.1357C110.071 94.2706 110.178 94.3629 110.309 94.4126C110.441 94.4624 110.586 94.4872 110.746 94.4872C110.867 94.4872 110.977 94.4783 111.076 94.4606C111.179 94.4428 111.257 94.4268 111.311 94.4126L111.636 95.9201C111.533 95.9556 111.385 95.9947 111.194 96.0373C111.005 96.0799 110.775 96.1048 110.501 96.1119C110.018 96.1261 109.583 96.0533 109.196 95.8935C108.809 95.7301 108.502 95.478 108.275 95.1371C108.051 94.7962 107.941 94.37 107.944 93.8587V85.858Z" fill="black"/>
</svg>
