<svg width="226" height="248" viewBox="0 0 226 248" fill="none" xmlns="http://www.w3.org/2000/svg">
<rect width="226" height="248" fill="white"/>
<path d="M0 196C0 189.373 5.37258 184 12 184H57C63.6274 184 69 189.373 69 196V236C69 242.627 63.6274 248 57 248H12C5.37258 248 0 242.627 0 236V196Z" fill="#2563EB"/>
<path d="M157 12C157 5.37258 162.373 0 169 0H214C220.627 0 226 5.37258 226 12V52C226 58.6274 220.627 64 214 64H169C162.373 64 157 58.6274 157 52V12Z" fill="#2563EB"/>
<mask id="path-3-outside-1_0_1" maskUnits="userSpaceOnUse" x="4" y="4" width="218" height="239" fill="black">
<rect fill="white" x="4" y="4" width="218" height="239"/>
<path d="M6 18C6 11.3726 11.3726 6 18 6H208C214.627 6 220 11.3726 220 18V229C220 235.627 214.627 241 208 241H18C11.3726 241 6 235.627 6 229V18Z"/>
</mask>
<path d="M6 18C6 11.3726 11.3726 6 18 6H208C214.627 6 220 11.3726 220 18V229C220 235.627 214.627 241 208 241H18C11.3726 241 6 235.627 6 229V18Z" fill="white"/>
<path d="M18 8H208V4H18V8ZM218 18V229H222V18H218ZM208 239H18V243H208V239ZM8 229V18H4V229H8ZM18 239C12.4771 239 8 234.523 8 229H4C4 236.732 10.268 243 18 243V239ZM218 229C218 234.523 213.523 239 208 239V243C215.732 243 222 236.732 222 229H218ZM208 8C213.523 8 218 12.4772 218 18H222C222 10.268 215.732 4 208 4V8ZM18 4C10.268 4 4 10.268 4 18H8C8 12.4772 12.4772 8 18 8V4Z" fill="#EDEDED" mask="url(#path-3-outside-1_0_1)"/>
<path d="M18 26C18 21.5817 21.5817 18 26 18H60C64.4183 18 68 21.5817 68 26V56C68 60.4183 64.4183 64 60 64H26C21.5817 64 18 60.4183 18 56V26Z" fill="#2563EB"/>
<path d="M18 99C18 94.5817 21.5817 91 26 91H200C204.418 91 208 94.5817 208 99V220C208 224.418 204.418 228 200 228H26C21.5817 228 18 224.418 18 220V99Z" fill="white"/>
<path d="M19.69 130.15C19.19 130.15 18.745 130.05 18.355 129.85C17.965 129.64 17.66 129.35 17.44 128.98C17.22 128.6 17.11 128.165 17.11 127.675V122.35H18.31V127.36C18.31 127.94 18.45 128.375 18.73 128.665C19.02 128.955 19.43 129.1 19.96 129.1C20.44 129.1 20.865 128.99 21.235 128.77C21.605 128.55 21.895 128.245 22.105 127.855C22.325 127.455 22.435 127 22.435 126.49L22.63 128.305C22.38 128.875 21.99 129.325 21.46 129.655C20.93 129.985 20.34 130.15 19.69 130.15ZM22.51 130V128.2H22.435V122.35H23.635V130H22.51ZM26.033 130V122.35H27.158V124.15H27.233V130H26.033ZM31.508 130V124.99C31.508 124.41 31.363 123.975 31.073 123.685C30.783 123.395 30.353 123.25 29.783 123.25C29.283 123.25 28.838 123.36 28.448 123.58C28.068 123.8 27.768 124.105 27.548 124.495C27.338 124.885 27.233 125.34 27.233 125.86L27.038 124.045C27.298 123.475 27.693 123.025 28.223 122.695C28.763 122.365 29.373 122.2 30.053 122.2C30.853 122.2 31.493 122.43 31.973 122.89C32.463 123.34 32.708 123.935 32.708 124.675V130H31.508ZM35.0125 130V119.2H36.2125V130H35.0125ZM38.616 130V122.35H39.816V130H38.616ZM38.526 120.61V119.2H39.906V120.61H38.526ZM42.2195 130V122.35H43.3445V124.15H43.4195V130H42.2195ZM47.3795 130V124.93C47.3795 124.35 47.2495 123.925 46.9895 123.655C46.7295 123.385 46.3545 123.25 45.8645 123.25C45.4045 123.25 44.9895 123.36 44.6195 123.58C44.2495 123.8 43.9545 124.105 43.7345 124.495C43.5245 124.885 43.4195 125.34 43.4195 125.86L43.2245 124.045C43.4845 123.475 43.8745 123.025 44.3945 122.695C44.9145 122.365 45.4795 122.2 46.0895 122.2C46.8295 122.2 47.4295 122.42 47.8895 122.86C48.3495 123.29 48.5795 123.875 48.5795 124.615V130H47.3795ZM52.5395 130V124.93C52.5395 124.35 52.4095 123.925 52.1495 123.655C51.8895 123.385 51.5145 123.25 51.0245 123.25C50.5645 123.25 50.1495 123.36 49.7795 123.58C49.4095 123.8 49.1145 124.105 48.8945 124.495C48.6845 124.885 48.5795 125.34 48.5795 125.86L48.2795 124.045C48.5395 123.475 48.9395 123.025 49.4795 122.695C50.0195 122.365 50.5995 122.2 51.2195 122.2C51.9595 122.2 52.5645 122.42 53.0345 122.86C53.5045 123.29 53.7395 123.875 53.7395 124.615V130H52.5395ZM56.0477 130V122.35H57.2477V130H56.0477ZM55.9577 120.61V119.2H57.3377V120.61H55.9577ZM62.6819 130.135C61.8319 130.135 61.2119 129.945 60.8219 129.565C60.4419 129.175 60.2519 128.615 60.2519 127.885V120.565L61.4519 120.115V127.87C61.4519 128.3 61.5619 128.615 61.7819 128.815C62.0019 129.015 62.3619 129.115 62.8619 129.115C63.0619 129.115 63.2319 129.105 63.3719 129.085C63.5219 129.055 63.6419 129.02 63.7319 128.98V130C63.6319 130.04 63.4869 130.07 63.2969 130.09C63.1169 130.12 62.9119 130.135 62.6819 130.135ZM58.6769 123.37V122.35H63.7319V123.37H58.6769ZM68.25 130.15C67.52 130.15 66.875 129.98 66.315 129.64C65.755 129.29 65.315 128.815 64.995 128.215C64.675 127.615 64.515 126.925 64.515 126.145C64.515 125.365 64.67 124.68 64.98 124.09C65.3 123.49 65.745 123.025 66.315 122.695C66.885 122.365 67.54 122.2 68.28 122.2C68.99 122.2 69.605 122.355 70.125 122.665C70.655 122.975 71.06 123.41 71.34 123.97C71.63 124.53 71.775 125.19 71.775 125.95C71.775 126.05 71.77 126.145 71.76 126.235C71.76 126.325 71.75 126.425 71.73 126.535H65.415V125.53H70.995L70.605 126.085C70.605 125.165 70.4 124.46 69.99 123.97C69.59 123.47 69.02 123.22 68.28 123.22C67.52 123.22 66.905 123.485 66.435 124.015C65.975 124.535 65.745 125.24 65.745 126.13C65.745 127.04 65.975 127.77 66.435 128.32C66.905 128.86 67.53 129.13 68.31 129.13C68.8 129.13 69.23 129.025 69.6 128.815C69.97 128.595 70.24 128.285 70.41 127.885H71.55C71.3 128.585 70.88 129.14 70.29 129.55C69.71 129.95 69.03 130.15 68.25 130.15ZM79.1468 130V128.215L79.2968 128.26C79.1068 128.84 78.7568 129.3 78.2468 129.64C77.7468 129.98 77.1468 130.15 76.4468 130.15C75.7568 130.15 75.1518 129.985 74.6318 129.655C74.1218 129.325 73.7218 128.865 73.4318 128.275C73.1518 127.685 73.0118 126.995 73.0118 126.205C73.0118 125.405 73.1568 124.705 73.4468 124.105C73.7368 123.505 74.1418 123.04 74.6618 122.71C75.1818 122.38 75.7918 122.215 76.4918 122.215C77.2118 122.215 77.8168 122.39 78.3068 122.74C78.7968 123.09 79.1318 123.585 79.3118 124.225L79.0718 124.255V119.2H80.2718V130H79.1468ZM76.6718 129.1C77.4418 129.1 78.0418 128.84 78.4718 128.32C78.9118 127.79 79.1318 127.07 79.1318 126.16C79.1318 125.27 78.9118 124.565 78.4718 124.045C78.0318 123.525 77.4318 123.265 76.6718 123.265C75.9118 123.265 75.3168 123.525 74.8868 124.045C74.4568 124.565 74.2418 125.285 74.2418 126.205C74.2418 127.105 74.4568 127.815 74.8868 128.335C75.3168 128.845 75.9118 129.1 76.6718 129.1ZM88.7264 130V120.28H85.0214V119.2H93.6614V120.28H89.9564V130H88.7264ZM96.9913 130.15C96.2413 130.15 95.5813 129.975 95.0113 129.625C94.4413 129.275 93.9963 128.8 93.6763 128.2C93.3663 127.59 93.2113 126.905 93.2113 126.145C93.2113 125.375 93.3713 124.695 93.6913 124.105C94.0113 123.515 94.4513 123.05 95.0113 122.71C95.5813 122.37 96.2413 122.2 96.9913 122.2C97.7513 122.2 98.4113 122.37 98.9713 122.71C99.5413 123.05 99.9813 123.515 100.291 124.105C100.611 124.695 100.771 125.375 100.771 126.145C100.771 126.905 100.611 127.59 100.291 128.2C99.9813 128.8 99.5413 129.275 98.9713 129.625C98.4113 129.975 97.7513 130.15 96.9913 130.15ZM96.9913 129.13C97.5113 129.13 97.9613 129.005 98.3413 128.755C98.7213 128.495 99.0163 128.14 99.2263 127.69C99.4363 127.24 99.5413 126.72 99.5413 126.13C99.5413 125.25 99.3063 124.545 98.8363 124.015C98.3763 123.485 97.7613 123.22 96.9913 123.22C96.2313 123.22 95.6163 123.485 95.1463 124.015C94.6763 124.545 94.4413 125.25 94.4413 126.13C94.4413 126.72 94.5463 127.24 94.7563 127.69C94.9663 128.14 95.2613 128.495 95.6413 128.755C96.0313 129.005 96.4813 129.13 96.9913 129.13ZM105.751 130.15C105.001 130.15 104.341 129.975 103.771 129.625C103.201 129.275 102.756 128.8 102.436 128.2C102.126 127.59 101.971 126.905 101.971 126.145C101.971 125.375 102.131 124.695 102.451 124.105C102.771 123.515 103.211 123.05 103.771 122.71C104.341 122.37 105.001 122.2 105.751 122.2C106.511 122.2 107.171 122.37 107.731 122.71C108.301 123.05 108.741 123.515 109.051 124.105C109.371 124.695 109.531 125.375 109.531 126.145C109.531 126.905 109.371 127.59 109.051 128.2C108.741 128.8 108.301 129.275 107.731 129.625C107.171 129.975 106.511 130.15 105.751 130.15ZM105.751 129.13C106.271 129.13 106.721 129.005 107.101 128.755C107.481 128.495 107.776 128.14 107.986 127.69C108.196 127.24 108.301 126.72 108.301 126.13C108.301 125.25 108.066 124.545 107.596 124.015C107.136 123.485 106.521 123.22 105.751 123.22C104.991 123.22 104.376 123.485 103.906 124.015C103.436 124.545 103.201 125.25 103.201 126.13C103.201 126.72 103.306 127.24 103.516 127.69C103.726 128.14 104.021 128.495 104.401 128.755C104.791 129.005 105.241 129.13 105.751 129.13ZM111.331 130V119.2H112.531V130H111.331ZM117.529 130.15C116.589 130.15 115.839 129.935 115.279 129.505C114.719 129.065 114.399 128.445 114.319 127.645H115.474C115.544 128.135 115.759 128.51 116.119 128.77C116.479 129.03 116.959 129.16 117.559 129.16C118.089 129.16 118.504 129.06 118.804 128.86C119.104 128.66 119.254 128.375 119.254 128.005C119.254 127.745 119.169 127.52 118.999 127.33C118.829 127.13 118.489 126.965 117.979 126.835L116.749 126.52C116.049 126.34 115.524 126.065 115.174 125.695C114.824 125.315 114.649 124.865 114.649 124.345C114.649 123.685 114.894 123.165 115.384 122.785C115.874 122.395 116.539 122.2 117.379 122.2C118.209 122.2 118.884 122.4 119.404 122.8C119.924 123.2 120.219 123.755 120.289 124.465H119.134C119.064 124.055 118.874 123.74 118.564 123.52C118.254 123.3 117.844 123.19 117.334 123.19C116.844 123.19 116.464 123.285 116.194 123.475C115.924 123.655 115.789 123.915 115.789 124.255C115.789 124.515 115.884 124.74 116.074 124.93C116.274 125.12 116.604 125.28 117.064 125.41L118.264 125.74C118.974 125.93 119.509 126.22 119.869 126.61C120.229 127 120.409 127.47 120.409 128.02C120.409 128.69 120.154 129.215 119.644 129.595C119.134 129.965 118.429 130.15 117.529 130.15ZM125.027 130V122.35H126.227V130H125.027ZM124.937 120.61V119.2H126.317V120.61H124.937ZM128.631 130V122.35H129.756V124.15H129.831V130H128.631ZM134.106 130V124.99C134.106 124.41 133.961 123.975 133.671 123.685C133.381 123.395 132.951 123.25 132.381 123.25C131.881 123.25 131.436 123.36 131.046 123.58C130.666 123.8 130.366 124.105 130.146 124.495C129.936 124.885 129.831 125.34 129.831 125.86L129.636 124.045C129.896 123.475 130.291 123.025 130.821 122.695C131.361 122.365 131.971 122.2 132.651 122.2C133.451 122.2 134.091 122.43 134.571 122.89C135.061 123.34 135.306 123.935 135.306 124.675V130H134.106ZM140.64 130.15C139.94 130.15 139.315 129.98 138.765 129.64C138.225 129.29 137.795 128.815 137.475 128.215C137.165 127.605 137.01 126.915 137.01 126.145C137.01 125.375 137.165 124.695 137.475 124.105C137.795 123.515 138.225 123.05 138.765 122.71C139.315 122.37 139.935 122.2 140.625 122.2C141.195 122.2 141.705 122.31 142.155 122.53C142.615 122.75 142.99 123.065 143.28 123.475C143.58 123.875 143.77 124.345 143.85 124.885H142.74C142.64 124.395 142.41 123.995 142.05 123.685C141.69 123.375 141.225 123.22 140.655 123.22C140.165 123.22 139.74 123.34 139.38 123.58C139.02 123.82 138.74 124.16 138.54 124.6C138.34 125.04 138.24 125.555 138.24 126.145C138.24 126.735 138.34 127.255 138.54 127.705C138.74 128.155 139.02 128.505 139.38 128.755C139.75 129.005 140.18 129.13 140.67 129.13C141.22 129.13 141.68 128.98 142.05 128.68C142.42 128.37 142.655 127.97 142.755 127.48H143.865C143.775 128.01 143.575 128.48 143.265 128.89C142.965 129.29 142.59 129.6 142.14 129.82C141.69 130.04 141.19 130.15 140.64 130.15ZM145.608 130V119.2H146.808V130H145.608ZM151.702 130.15C151.202 130.15 150.757 130.05 150.367 129.85C149.977 129.64 149.672 129.35 149.452 128.98C149.232 128.6 149.122 128.165 149.122 127.675V122.35H150.322V127.36C150.322 127.94 150.462 128.375 150.742 128.665C151.032 128.955 151.442 129.1 151.972 129.1C152.452 129.1 152.877 128.99 153.247 128.77C153.617 128.55 153.907 128.245 154.117 127.855C154.337 127.455 154.447 127 154.447 126.49L154.642 128.305C154.392 128.875 154.002 129.325 153.472 129.655C152.942 129.985 152.352 130.15 151.702 130.15ZM154.522 130V128.2H154.447V122.35H155.647V130H154.522ZM163.58 130V128.215L163.73 128.26C163.54 128.84 163.19 129.3 162.68 129.64C162.18 129.98 161.58 130.15 160.88 130.15C160.19 130.15 159.585 129.985 159.065 129.655C158.555 129.325 158.155 128.865 157.865 128.275C157.585 127.685 157.445 126.995 157.445 126.205C157.445 125.405 157.59 124.705 157.88 124.105C158.17 123.505 158.575 123.04 159.095 122.71C159.615 122.38 160.225 122.215 160.925 122.215C161.645 122.215 162.25 122.39 162.74 122.74C163.23 123.09 163.565 123.585 163.745 124.225L163.505 124.255V119.2H164.705V130H163.58ZM161.105 129.1C161.875 129.1 162.475 128.84 162.905 128.32C163.345 127.79 163.565 127.07 163.565 126.16C163.565 125.27 163.345 124.565 162.905 124.045C162.465 123.525 161.865 123.265 161.105 123.265C160.345 123.265 159.75 123.525 159.32 124.045C158.89 124.565 158.675 125.285 158.675 126.205C158.675 127.105 158.89 127.815 159.32 128.335C159.75 128.845 160.345 129.1 161.105 129.1ZM167.112 130V122.35H168.312V130H167.112ZM167.022 120.61V119.2H168.402V120.61H167.022ZM170.716 130V122.35H171.841V124.15H171.916V130H170.716ZM176.191 130V124.99C176.191 124.41 176.046 123.975 175.756 123.685C175.466 123.395 175.036 123.25 174.466 123.25C173.966 123.25 173.521 123.36 173.131 123.58C172.751 123.8 172.451 124.105 172.231 124.495C172.021 124.885 171.916 125.34 171.916 125.86L171.721 124.045C171.981 123.475 172.376 123.025 172.906 122.695C173.446 122.365 174.056 122.2 174.736 122.2C175.536 122.2 176.176 122.43 176.656 122.89C177.146 123.34 177.391 123.935 177.391 124.675V130H176.191ZM182.74 133.225C181.83 133.225 181.07 133.01 180.46 132.58C179.86 132.16 179.495 131.6 179.365 130.9H180.505C180.615 131.3 180.86 131.615 181.24 131.845C181.63 132.085 182.155 132.205 182.815 132.205C183.595 132.205 184.185 131.99 184.585 131.56C184.985 131.14 185.185 130.52 185.185 129.7V128.065L185.335 128.095C185.165 128.675 184.825 129.14 184.315 129.49C183.805 129.83 183.2 130 182.5 130C181.83 130 181.24 129.84 180.73 129.52C180.22 129.19 179.825 128.735 179.545 128.155C179.265 127.575 179.125 126.9 179.125 126.13C179.125 125.35 179.27 124.665 179.56 124.075C179.85 123.485 180.255 123.03 180.775 122.71C181.305 122.38 181.92 122.215 182.62 122.215C183.34 122.215 183.94 122.39 184.42 122.74C184.91 123.09 185.235 123.59 185.395 124.24L185.26 124.255V122.35H186.385V129.7C186.385 130.79 186.06 131.65 185.41 132.28C184.76 132.91 183.87 133.225 182.74 133.225ZM182.8 128.965C183.55 128.965 184.145 128.705 184.585 128.185C185.025 127.665 185.245 126.96 185.245 126.07C185.245 125.2 185.025 124.515 184.585 124.015C184.145 123.505 183.55 123.25 182.8 123.25C182.04 123.25 181.44 123.505 181 124.015C180.57 124.525 180.355 125.225 180.355 126.115C180.355 126.985 180.575 127.68 181.015 128.2C181.455 128.71 182.05 128.965 182.8 128.965ZM21.895 148C21.855 147.83 21.825 147.635 21.805 147.415C21.795 147.195 21.79 146.915 21.79 146.575H21.715V142.915C21.715 142.335 21.58 141.91 21.31 141.64C21.05 141.36 20.625 141.22 20.035 141.22C19.455 141.22 18.99 141.34 18.64 141.58C18.3 141.81 18.11 142.14 18.07 142.57H16.915C16.965 141.83 17.275 141.25 17.845 140.83C18.415 140.41 19.16 140.2 20.08 140.2C21.03 140.2 21.735 140.425 22.195 140.875C22.655 141.325 22.885 142 22.885 142.9V146.575C22.885 146.795 22.9 147.025 22.93 147.265C22.96 147.495 23 147.74 23.05 148H21.895ZM19.27 148.15C18.48 148.15 17.85 147.96 17.38 147.58C16.92 147.19 16.69 146.66 16.69 145.99C16.69 145.32 16.92 144.8 17.38 144.43C17.84 144.06 18.51 143.8 19.39 143.65L22.06 143.2V144.19L19.57 144.58C19.01 144.67 18.585 144.82 18.295 145.03C18.005 145.24 17.86 145.545 17.86 145.945C17.86 146.335 17.99 146.63 18.25 146.83C18.52 147.03 18.915 147.13 19.435 147.13C20.105 147.13 20.65 146.98 21.07 146.68C21.5 146.37 21.715 145.97 21.715 145.48L21.91 146.545C21.75 147.055 21.435 147.45 20.965 147.73C20.505 148.01 19.94 148.15 19.27 148.15ZM28.201 148V140.35H29.326V142.3H29.401V148H28.201ZM29.401 144.01L29.206 142.195C29.386 141.545 29.706 141.05 30.166 140.71C30.626 140.37 31.156 140.2 31.756 140.2C32.006 140.2 32.176 140.22 32.266 140.26V141.415C32.216 141.395 32.146 141.385 32.056 141.385C31.966 141.375 31.856 141.37 31.726 141.37C30.966 141.37 30.386 141.6 29.986 142.06C29.596 142.51 29.401 143.16 29.401 144.01ZM36.6973 148.15C35.9673 148.15 35.3223 147.98 34.7623 147.64C34.2023 147.29 33.7623 146.815 33.4423 146.215C33.1223 145.615 32.9623 144.925 32.9623 144.145C32.9623 143.365 33.1173 142.68 33.4273 142.09C33.7473 141.49 34.1923 141.025 34.7623 140.695C35.3323 140.365 35.9873 140.2 36.7273 140.2C37.4373 140.2 38.0523 140.355 38.5723 140.665C39.1023 140.975 39.5073 141.41 39.7873 141.97C40.0773 142.53 40.2223 143.19 40.2223 143.95C40.2223 144.05 40.2173 144.145 40.2073 144.235C40.2073 144.325 40.1973 144.425 40.1773 144.535H33.8623V143.53H39.4423L39.0523 144.085C39.0523 143.165 38.8473 142.46 38.4373 141.97C38.0373 141.47 37.4673 141.22 36.7273 141.22C35.9673 141.22 35.3523 141.485 34.8823 142.015C34.4223 142.535 34.1923 143.24 34.1923 144.13C34.1923 145.04 34.4223 145.77 34.8823 146.32C35.3523 146.86 35.9773 147.13 36.7573 147.13C37.2473 147.13 37.6773 147.025 38.0473 146.815C38.4173 146.595 38.6873 146.285 38.8573 145.885H39.9973C39.7473 146.585 39.3273 147.14 38.7373 147.55C38.1573 147.95 37.4773 148.15 36.6973 148.15ZM42.0291 148V137.2H43.2291V148H42.0291ZM50.3276 148C50.2876 147.83 50.2576 147.635 50.2376 147.415C50.2276 147.195 50.2226 146.915 50.2226 146.575H50.1476V142.915C50.1476 142.335 50.0126 141.91 49.7426 141.64C49.4826 141.36 49.0576 141.22 48.4676 141.22C47.8876 141.22 47.4226 141.34 47.0726 141.58C46.7326 141.81 46.5426 142.14 46.5026 142.57H45.3476C45.3976 141.83 45.7076 141.25 46.2776 140.83C46.8476 140.41 47.5926 140.2 48.5126 140.2C49.4626 140.2 50.1676 140.425 50.6276 140.875C51.0876 141.325 51.3176 142 51.3176 142.9V146.575C51.3176 146.795 51.3326 147.025 51.3626 147.265C51.3926 147.495 51.4326 147.74 51.4826 148H50.3276ZM47.7026 148.15C46.9126 148.15 46.2826 147.96 45.8126 147.58C45.3526 147.19 45.1226 146.66 45.1226 145.99C45.1226 145.32 45.3526 144.8 45.8126 144.43C46.2726 144.06 46.9426 143.8 47.8226 143.65L50.4926 143.2V144.19L48.0026 144.58C47.4426 144.67 47.0176 144.82 46.7276 145.03C46.4376 145.24 46.2926 145.545 46.2926 145.945C46.2926 146.335 46.4226 146.63 46.6826 146.83C46.9526 147.03 47.3476 147.13 47.8676 147.13C48.5376 147.13 49.0826 146.98 49.5026 146.68C49.9326 146.37 50.1476 145.97 50.1476 145.48L50.3426 146.545C50.1826 147.055 49.8676 147.45 49.3976 147.73C48.9376 148.01 48.3726 148.15 47.7026 148.15ZM53.6307 148V140.35H54.8307V148H53.6307ZM53.5407 138.61V137.2H54.9207V138.61H53.5407ZM61.8852 148C61.8452 147.83 61.8152 147.635 61.7952 147.415C61.7852 147.195 61.7802 146.915 61.7802 146.575H61.7052V142.915C61.7052 142.335 61.5702 141.91 61.3002 141.64C61.0402 141.36 60.6152 141.22 60.0252 141.22C59.4452 141.22 58.9802 141.34 58.6302 141.58C58.2902 141.81 58.1002 142.14 58.0602 142.57H56.9052C56.9552 141.83 57.2652 141.25 57.8352 140.83C58.4052 140.41 59.1502 140.2 60.0702 140.2C61.0202 140.2 61.7252 140.425 62.1852 140.875C62.6452 141.325 62.8752 142 62.8752 142.9V146.575C62.8752 146.795 62.8902 147.025 62.9202 147.265C62.9502 147.495 62.9902 147.74 63.0402 148H61.8852ZM59.2602 148.15C58.4702 148.15 57.8402 147.96 57.3702 147.58C56.9102 147.19 56.6802 146.66 56.6802 145.99C56.6802 145.32 56.9102 144.8 57.3702 144.43C57.8302 144.06 58.5002 143.8 59.3802 143.65L62.0502 143.2V144.19L59.5602 144.58C59.0002 144.67 58.5752 144.82 58.2852 145.03C57.9952 145.24 57.8502 145.545 57.8502 145.945C57.8502 146.335 57.9802 146.63 58.2402 146.83C58.5102 147.03 58.9052 147.13 59.4252 147.13C60.0952 147.13 60.6402 146.98 61.0602 146.68C61.4902 146.37 61.7052 145.97 61.7052 145.48L61.9002 146.545C61.7402 147.055 61.4252 147.45 60.9552 147.73C60.4952 148.01 59.9302 148.15 59.2602 148.15ZM68.9683 148.135C68.2483 148.135 67.6433 147.96 67.1533 147.61C66.6633 147.26 66.3283 146.765 66.1483 146.125L66.3133 146.095V148H65.1883V137.2H66.3883V142.135L66.2233 142.09C66.4133 141.5 66.7583 141.04 67.2583 140.71C67.7683 140.37 68.3733 140.2 69.0733 140.2C69.7533 140.2 70.3433 140.365 70.8433 140.695C71.3533 141.025 71.7483 141.485 72.0283 142.075C72.3083 142.665 72.4483 143.355 72.4483 144.145C72.4483 144.945 72.3033 145.645 72.0133 146.245C71.7233 146.845 71.3183 147.31 70.7983 147.64C70.2783 147.97 69.6683 148.135 68.9683 148.135ZM68.7883 147.085C69.5483 147.085 70.1433 146.825 70.5733 146.305C71.0033 145.775 71.2183 145.055 71.2183 144.145C71.2183 143.245 71.0033 142.54 70.5733 142.03C70.1433 141.51 69.5483 141.25 68.7883 141.25C68.0283 141.25 67.4283 141.515 66.9883 142.045C66.5483 142.565 66.3283 143.28 66.3283 144.19C66.3283 145.08 66.5483 145.785 66.9883 146.305C67.4283 146.825 68.0283 147.085 68.7883 147.085ZM74.285 148V137.2H75.485V148H74.285ZM81.0235 148.15C80.2935 148.15 79.6485 147.98 79.0885 147.64C78.5285 147.29 78.0885 146.815 77.7685 146.215C77.4485 145.615 77.2885 144.925 77.2885 144.145C77.2885 143.365 77.4435 142.68 77.7535 142.09C78.0735 141.49 78.5185 141.025 79.0885 140.695C79.6585 140.365 80.3135 140.2 81.0535 140.2C81.7635 140.2 82.3785 140.355 82.8985 140.665C83.4285 140.975 83.8335 141.41 84.1135 141.97C84.4035 142.53 84.5485 143.19 84.5485 143.95C84.5485 144.05 84.5435 144.145 84.5335 144.235C84.5335 144.325 84.5235 144.425 84.5035 144.535H78.1885V143.53H83.7685L83.3785 144.085C83.3785 143.165 83.1735 142.46 82.7635 141.97C82.3635 141.47 81.7935 141.22 81.0535 141.22C80.2935 141.22 79.6785 141.485 79.2085 142.015C78.7485 142.535 78.5185 143.24 78.5185 144.13C78.5185 145.04 78.7485 145.77 79.2085 146.32C79.6785 146.86 80.3035 147.13 81.0835 147.13C81.5735 147.13 82.0035 147.025 82.3735 146.815C82.7435 146.595 83.0135 146.285 83.1835 145.885H84.3235C84.0735 146.585 83.6535 147.14 83.0635 147.55C82.4835 147.95 81.8035 148.15 81.0235 148.15ZM92.4182 148.135C91.5682 148.135 90.9482 147.945 90.5582 147.565C90.1782 147.175 89.9882 146.615 89.9882 145.885V138.565L91.1882 138.115V145.87C91.1882 146.3 91.2982 146.615 91.5182 146.815C91.7382 147.015 92.0982 147.115 92.5982 147.115C92.7982 147.115 92.9682 147.105 93.1082 147.085C93.2582 147.055 93.3782 147.02 93.4682 146.98V148C93.3682 148.04 93.2232 148.07 93.0332 148.09C92.8532 148.12 92.6482 148.135 92.4182 148.135ZM88.4132 141.37V140.35H93.4682V141.37H88.4132ZM95.0125 148V140.35H96.1375V142.3H96.2125V148H95.0125ZM96.2125 144.01L96.0175 142.195C96.1975 141.545 96.5175 141.05 96.9775 140.71C97.4375 140.37 97.9675 140.2 98.5675 140.2C98.8175 140.2 98.9875 140.22 99.0775 140.26V141.415C99.0275 141.395 98.9575 141.385 98.8675 141.385C98.7775 141.375 98.6675 141.37 98.5375 141.37C97.7775 141.37 97.1975 141.6 96.7975 142.06C96.4075 142.51 96.2125 143.16 96.2125 144.01ZM105.113 148C105.073 147.83 105.043 147.635 105.023 147.415C105.013 147.195 105.008 146.915 105.008 146.575H104.933V142.915C104.933 142.335 104.798 141.91 104.528 141.64C104.268 141.36 103.843 141.22 103.253 141.22C102.673 141.22 102.208 141.34 101.858 141.58C101.518 141.81 101.328 142.14 101.288 142.57H100.133C100.183 141.83 100.493 141.25 101.063 140.83C101.633 140.41 102.378 140.2 103.298 140.2C104.248 140.2 104.953 140.425 105.413 140.875C105.873 141.325 106.103 142 106.103 142.9V146.575C106.103 146.795 106.118 147.025 106.148 147.265C106.178 147.495 106.218 147.74 106.268 148H105.113ZM102.488 148.15C101.698 148.15 101.068 147.96 100.598 147.58C100.138 147.19 99.9078 146.66 99.9078 145.99C99.9078 145.32 100.138 144.8 100.598 144.43C101.058 144.06 101.728 143.8 102.608 143.65L105.278 143.2V144.19L102.788 144.58C102.228 144.67 101.803 144.82 101.513 145.03C101.223 145.24 101.078 145.545 101.078 145.945C101.078 146.335 101.208 146.63 101.468 146.83C101.738 147.03 102.133 147.13 102.653 147.13C103.323 147.13 103.868 146.98 104.288 146.68C104.718 146.37 104.933 145.97 104.933 145.48L105.128 146.545C104.968 147.055 104.653 147.45 104.183 147.73C103.723 148.01 103.158 148.15 102.488 148.15ZM113.981 148V146.215L114.131 146.26C113.941 146.84 113.591 147.3 113.081 147.64C112.581 147.98 111.981 148.15 111.281 148.15C110.591 148.15 109.986 147.985 109.466 147.655C108.956 147.325 108.556 146.865 108.266 146.275C107.986 145.685 107.846 144.995 107.846 144.205C107.846 143.405 107.991 142.705 108.281 142.105C108.571 141.505 108.976 141.04 109.496 140.71C110.016 140.38 110.626 140.215 111.326 140.215C112.046 140.215 112.651 140.39 113.141 140.74C113.631 141.09 113.966 141.585 114.146 142.225L113.906 142.255V137.2H115.106V148H113.981ZM111.506 147.1C112.276 147.1 112.876 146.84 113.306 146.32C113.746 145.79 113.966 145.07 113.966 144.16C113.966 143.27 113.746 142.565 113.306 142.045C112.866 141.525 112.266 141.265 111.506 141.265C110.746 141.265 110.151 141.525 109.721 142.045C109.291 142.565 109.076 143.285 109.076 144.205C109.076 145.105 109.291 145.815 109.721 146.335C110.151 146.845 110.746 147.1 111.506 147.1ZM117.513 148V140.35H118.713V148H117.513ZM117.423 138.61V137.2H118.803V138.61H117.423ZM121.116 148V140.35H122.241V142.15H122.316V148H121.116ZM126.591 148V142.99C126.591 142.41 126.446 141.975 126.156 141.685C125.866 141.395 125.436 141.25 124.866 141.25C124.366 141.25 123.921 141.36 123.531 141.58C123.151 141.8 122.851 142.105 122.631 142.495C122.421 142.885 122.316 143.34 122.316 143.86L122.121 142.045C122.381 141.475 122.776 141.025 123.306 140.695C123.846 140.365 124.456 140.2 125.136 140.2C125.936 140.2 126.576 140.43 127.056 140.89C127.546 141.34 127.791 141.935 127.791 142.675V148H126.591ZM133.141 151.225C132.231 151.225 131.471 151.01 130.861 150.58C130.261 150.16 129.896 149.6 129.766 148.9H130.906C131.016 149.3 131.261 149.615 131.641 149.845C132.031 150.085 132.556 150.205 133.216 150.205C133.996 150.205 134.586 149.99 134.986 149.56C135.386 149.14 135.586 148.52 135.586 147.7V146.065L135.736 146.095C135.566 146.675 135.226 147.14 134.716 147.49C134.206 147.83 133.601 148 132.901 148C132.231 148 131.641 147.84 131.131 147.52C130.621 147.19 130.226 146.735 129.946 146.155C129.666 145.575 129.526 144.9 129.526 144.13C129.526 143.35 129.671 142.665 129.961 142.075C130.251 141.485 130.656 141.03 131.176 140.71C131.706 140.38 132.321 140.215 133.021 140.215C133.741 140.215 134.341 140.39 134.821 140.74C135.311 141.09 135.636 141.59 135.796 142.24L135.661 142.255V140.35H136.786V147.7C136.786 148.79 136.461 149.65 135.811 150.28C135.161 150.91 134.271 151.225 133.141 151.225ZM133.201 146.965C133.951 146.965 134.546 146.705 134.986 146.185C135.426 145.665 135.646 144.96 135.646 144.07C135.646 143.2 135.426 142.515 134.986 142.015C134.546 141.505 133.951 141.25 133.201 141.25C132.441 141.25 131.841 141.505 131.401 142.015C130.971 142.525 130.756 143.225 130.756 144.115C130.756 144.985 130.976 145.68 131.416 146.2C131.856 146.71 132.451 146.965 133.201 146.965ZM145.975 148.135C145.255 148.135 144.65 147.96 144.16 147.61C143.67 147.26 143.335 146.765 143.155 146.125L143.32 146.095V148H142.195V137.2H143.395V142.135L143.23 142.09C143.42 141.5 143.765 141.04 144.265 140.71C144.775 140.37 145.38 140.2 146.08 140.2C146.76 140.2 147.35 140.365 147.85 140.695C148.36 141.025 148.755 141.485 149.035 142.075C149.315 142.665 149.455 143.355 149.455 144.145C149.455 144.945 149.31 145.645 149.02 146.245C148.73 146.845 148.325 147.31 147.805 147.64C147.285 147.97 146.675 148.135 145.975 148.135ZM145.795 147.085C146.555 147.085 147.15 146.825 147.58 146.305C148.01 145.775 148.225 145.055 148.225 144.145C148.225 143.245 148.01 142.54 147.58 142.03C147.15 141.51 146.555 141.25 145.795 141.25C145.035 141.25 144.435 141.515 143.995 142.045C143.555 142.565 143.335 143.28 143.335 144.19C143.335 145.08 143.555 145.785 143.995 146.305C144.435 146.825 145.035 147.085 145.795 147.085ZM154.472 148.15C153.722 148.15 153.062 147.975 152.492 147.625C151.922 147.275 151.477 146.8 151.157 146.2C150.847 145.59 150.692 144.905 150.692 144.145C150.692 143.375 150.852 142.695 151.172 142.105C151.492 141.515 151.932 141.05 152.492 140.71C153.062 140.37 153.722 140.2 154.472 140.2C155.232 140.2 155.892 140.37 156.452 140.71C157.022 141.05 157.462 141.515 157.772 142.105C158.092 142.695 158.252 143.375 158.252 144.145C158.252 144.905 158.092 145.59 157.772 146.2C157.462 146.8 157.022 147.275 156.452 147.625C155.892 147.975 155.232 148.15 154.472 148.15ZM154.472 147.13C154.992 147.13 155.442 147.005 155.822 146.755C156.202 146.495 156.497 146.14 156.707 145.69C156.917 145.24 157.022 144.72 157.022 144.13C157.022 143.25 156.787 142.545 156.317 142.015C155.857 141.485 155.242 141.22 154.472 141.22C153.712 141.22 153.097 141.485 152.627 142.015C152.157 142.545 151.922 143.25 151.922 144.13C151.922 144.72 152.027 145.24 152.237 145.69C152.447 146.14 152.742 146.495 153.122 146.755C153.512 147.005 153.962 147.13 154.472 147.13ZM163.038 148.135C162.188 148.135 161.568 147.945 161.178 147.565C160.798 147.175 160.608 146.615 160.608 145.885V138.565L161.808 138.115V145.87C161.808 146.3 161.918 146.615 162.138 146.815C162.358 147.015 162.718 147.115 163.218 147.115C163.418 147.115 163.588 147.105 163.728 147.085C163.878 147.055 163.998 147.02 164.088 146.98V148C163.988 148.04 163.843 148.07 163.653 148.09C163.473 148.12 163.268 148.135 163.038 148.135ZM159.033 141.37V140.35H164.088V141.37H159.033ZM171.696 148.135C170.846 148.135 170.226 147.945 169.836 147.565C169.456 147.175 169.266 146.615 169.266 145.885V138.565L170.466 138.115V145.87C170.466 146.3 170.576 146.615 170.796 146.815C171.016 147.015 171.376 147.115 171.876 147.115C172.076 147.115 172.246 147.105 172.386 147.085C172.536 147.055 172.656 147.02 172.746 146.98V148C172.646 148.04 172.501 148.07 172.311 148.09C172.131 148.12 171.926 148.135 171.696 148.135ZM167.691 141.37V140.35H172.746V141.37H167.691ZM177.294 148.15C176.544 148.15 175.884 147.975 175.314 147.625C174.744 147.275 174.299 146.8 173.979 146.2C173.669 145.59 173.514 144.905 173.514 144.145C173.514 143.375 173.674 142.695 173.994 142.105C174.314 141.515 174.754 141.05 175.314 140.71C175.884 140.37 176.544 140.2 177.294 140.2C178.054 140.2 178.714 140.37 179.274 140.71C179.844 141.05 180.284 141.515 180.594 142.105C180.914 142.695 181.074 143.375 181.074 144.145C181.074 144.905 180.914 145.59 180.594 146.2C180.284 146.8 179.844 147.275 179.274 147.625C178.714 147.975 178.054 148.15 177.294 148.15ZM177.294 147.13C177.814 147.13 178.264 147.005 178.644 146.755C179.024 146.495 179.319 146.14 179.529 145.69C179.739 145.24 179.844 144.72 179.844 144.13C179.844 143.25 179.609 142.545 179.139 142.015C178.679 141.485 178.064 141.22 177.294 141.22C176.534 141.22 175.919 141.485 175.449 142.015C174.979 142.545 174.744 143.25 174.744 144.13C174.744 144.72 174.849 145.24 175.059 145.69C175.269 146.14 175.564 146.495 175.944 146.755C176.334 147.005 176.784 147.13 177.294 147.13ZM17.86 169.075L19.57 165.1L19.84 164.68L22.345 158.35H23.575L19.135 169.075H17.86ZM19.705 166.075L16.27 158.35H17.59L20.545 165.265L19.705 166.075ZM28.0411 166.15C27.2911 166.15 26.6311 165.975 26.0611 165.625C25.4911 165.275 25.0461 164.8 24.7261 164.2C24.4161 163.59 24.2611 162.905 24.2611 162.145C24.2611 161.375 24.4211 160.695 24.7411 160.105C25.0611 159.515 25.5011 159.05 26.0611 158.71C26.6311 158.37 27.2911 158.2 28.0411 158.2C28.8011 158.2 29.4611 158.37 30.0211 158.71C30.5911 159.05 31.0311 159.515 31.3411 160.105C31.6611 160.695 31.8211 161.375 31.8211 162.145C31.8211 162.905 31.6611 163.59 31.3411 164.2C31.0311 164.8 30.5911 165.275 30.0211 165.625C29.4611 165.975 28.8011 166.15 28.0411 166.15ZM28.0411 165.13C28.5611 165.13 29.0111 165.005 29.3911 164.755C29.7711 164.495 30.0661 164.14 30.2761 163.69C30.4861 163.24 30.5911 162.72 30.5911 162.13C30.5911 161.25 30.3561 160.545 29.8861 160.015C29.4261 159.485 28.8111 159.22 28.0411 159.22C27.2811 159.22 26.6661 159.485 26.1961 160.015C25.7261 160.545 25.4911 161.25 25.4911 162.13C25.4911 162.72 25.5961 163.24 25.8061 163.69C26.0161 164.14 26.3111 164.495 26.6911 164.755C27.0811 165.005 27.5311 165.13 28.0411 165.13ZM36.1109 166.15C35.6109 166.15 35.1659 166.05 34.7759 165.85C34.3859 165.64 34.0809 165.35 33.8609 164.98C33.6409 164.6 33.5309 164.165 33.5309 163.675V158.35H34.7309V163.36C34.7309 163.94 34.8709 164.375 35.1509 164.665C35.4409 164.955 35.8509 165.1 36.3809 165.1C36.8609 165.1 37.2859 164.99 37.6559 164.77C38.0259 164.55 38.3159 164.245 38.5259 163.855C38.7459 163.455 38.8559 163 38.8559 162.49L39.0509 164.305C38.8009 164.875 38.4109 165.325 37.8809 165.655C37.3509 165.985 36.7609 166.15 36.1109 166.15ZM38.9309 166V164.2H38.8559V158.35H40.0559V166H38.9309ZM42.4539 166V158.35H43.5789V160.3H43.6539V166H42.4539ZM43.6539 162.01L43.4589 160.195C43.6389 159.545 43.9589 159.05 44.4189 158.71C44.8789 158.37 45.4089 158.2 46.0089 158.2C46.2589 158.2 46.4289 158.22 46.5189 158.26V159.415C46.4689 159.395 46.3989 159.385 46.3089 159.385C46.2189 159.375 46.1089 159.37 45.9789 159.37C45.2189 159.37 44.6389 159.6 44.2389 160.06C43.8489 160.51 43.6539 161.16 43.6539 162.01ZM56.6468 166V164.215L56.7968 164.26C56.6068 164.84 56.2568 165.3 55.7468 165.64C55.2468 165.98 54.6468 166.15 53.9468 166.15C53.2568 166.15 52.6518 165.985 52.1318 165.655C51.6218 165.325 51.2218 164.865 50.9318 164.275C50.6518 163.685 50.5118 162.995 50.5118 162.205C50.5118 161.405 50.6568 160.705 50.9468 160.105C51.2368 159.505 51.6418 159.04 52.1618 158.71C52.6818 158.38 53.2918 158.215 53.9918 158.215C54.7118 158.215 55.3168 158.39 55.8068 158.74C56.2968 159.09 56.6318 159.585 56.8118 160.225L56.5718 160.255V155.2H57.7718V166H56.6468ZM54.1718 165.1C54.9418 165.1 55.5418 164.84 55.9718 164.32C56.4118 163.79 56.6318 163.07 56.6318 162.16C56.6318 161.27 56.4118 160.565 55.9718 160.045C55.5318 159.525 54.9318 159.265 54.1718 159.265C53.4118 159.265 52.8168 159.525 52.3868 160.045C51.9568 160.565 51.7418 161.285 51.7418 162.205C51.7418 163.105 51.9568 163.815 52.3868 164.335C52.8168 164.845 53.4118 165.1 54.1718 165.1ZM60.1785 166V158.35H61.3785V166H60.1785ZM60.0885 156.61V155.2H61.4685V156.61H60.0885ZM66.377 166.15C65.437 166.15 64.687 165.935 64.127 165.505C63.567 165.065 63.247 164.445 63.167 163.645H64.322C64.392 164.135 64.607 164.51 64.967 164.77C65.327 165.03 65.807 165.16 66.407 165.16C66.937 165.16 67.352 165.06 67.652 164.86C67.952 164.66 68.102 164.375 68.102 164.005C68.102 163.745 68.017 163.52 67.847 163.33C67.677 163.13 67.337 162.965 66.827 162.835L65.597 162.52C64.897 162.34 64.372 162.065 64.022 161.695C63.672 161.315 63.497 160.865 63.497 160.345C63.497 159.685 63.742 159.165 64.232 158.785C64.722 158.395 65.387 158.2 66.227 158.2C67.057 158.2 67.732 158.4 68.252 158.8C68.772 159.2 69.067 159.755 69.137 160.465H67.982C67.912 160.055 67.722 159.74 67.412 159.52C67.102 159.3 66.692 159.19 66.182 159.19C65.692 159.19 65.312 159.285 65.042 159.475C64.772 159.655 64.637 159.915 64.637 160.255C64.637 160.515 64.732 160.74 64.922 160.93C65.122 161.12 65.452 161.28 65.912 161.41L67.112 161.74C67.822 161.93 68.357 162.22 68.717 162.61C69.077 163 69.257 163.47 69.257 164.02C69.257 164.69 69.002 165.215 68.492 165.595C67.982 165.965 67.277 166.15 66.377 166.15ZM74.6519 166.135C73.9319 166.135 73.3269 165.96 72.8369 165.61C72.3469 165.26 72.0119 164.765 71.8319 164.125L72.0719 164.095V169.075H70.8719V158.35H71.9969V160.135L71.8319 160.09C72.0219 159.5 72.3819 159.04 72.9119 158.71C73.4419 158.37 74.0569 158.2 74.7569 158.2C75.4369 158.2 76.0269 158.365 76.5269 158.695C77.0369 159.025 77.4319 159.485 77.7119 160.075C77.9919 160.665 78.1319 161.355 78.1319 162.145C78.1319 162.945 77.9869 163.645 77.6969 164.245C77.4069 164.845 77.0019 165.31 76.4819 165.64C75.9619 165.97 75.3519 166.135 74.6519 166.135ZM74.4719 165.085C75.2319 165.085 75.8269 164.825 76.2569 164.305C76.6869 163.775 76.9019 163.055 76.9019 162.145C76.9019 161.245 76.6869 160.54 76.2569 160.03C75.8269 159.51 75.2319 159.25 74.4719 159.25C73.7119 159.25 73.1119 159.515 72.6719 160.045C72.2319 160.565 72.0119 161.28 72.0119 162.19C72.0119 163.08 72.2319 163.785 72.6719 164.305C73.1119 164.825 73.7119 165.085 74.4719 165.085ZM83.1486 166.15C82.3986 166.15 81.7386 165.975 81.1686 165.625C80.5986 165.275 80.1536 164.8 79.8336 164.2C79.5236 163.59 79.3686 162.905 79.3686 162.145C79.3686 161.375 79.5286 160.695 79.8486 160.105C80.1686 159.515 80.6086 159.05 81.1686 158.71C81.7386 158.37 82.3986 158.2 83.1486 158.2C83.9086 158.2 84.5686 158.37 85.1286 158.71C85.6986 159.05 86.1386 159.515 86.4486 160.105C86.7686 160.695 86.9286 161.375 86.9286 162.145C86.9286 162.905 86.7686 163.59 86.4486 164.2C86.1386 164.8 85.6986 165.275 85.1286 165.625C84.5686 165.975 83.9086 166.15 83.1486 166.15ZM83.1486 165.13C83.6686 165.13 84.1186 165.005 84.4986 164.755C84.8786 164.495 85.1736 164.14 85.3836 163.69C85.5936 163.24 85.6986 162.72 85.6986 162.13C85.6986 161.25 85.4636 160.545 84.9936 160.015C84.5336 159.485 83.9186 159.22 83.1486 159.22C82.3886 159.22 81.7736 159.485 81.3036 160.015C80.8336 160.545 80.5986 161.25 80.5986 162.13C80.5986 162.72 80.7036 163.24 80.9136 163.69C81.1236 164.14 81.4186 164.495 81.7986 164.755C82.1886 165.005 82.6386 165.13 83.1486 165.13ZM91.3233 166.15C90.3833 166.15 89.6333 165.935 89.0733 165.505C88.5133 165.065 88.1933 164.445 88.1133 163.645H89.2683C89.3383 164.135 89.5533 164.51 89.9133 164.77C90.2733 165.03 90.7533 165.16 91.3533 165.16C91.8833 165.16 92.2983 165.06 92.5983 164.86C92.8983 164.66 93.0483 164.375 93.0483 164.005C93.0483 163.745 92.9633 163.52 92.7933 163.33C92.6233 163.13 92.2833 162.965 91.7733 162.835L90.5433 162.52C89.8433 162.34 89.3183 162.065 88.9683 161.695C88.6183 161.315 88.4433 160.865 88.4433 160.345C88.4433 159.685 88.6883 159.165 89.1783 158.785C89.6683 158.395 90.3333 158.2 91.1733 158.2C92.0033 158.2 92.6783 158.4 93.1983 158.8C93.7183 159.2 94.0133 159.755 94.0833 160.465H92.9283C92.8583 160.055 92.6683 159.74 92.3583 159.52C92.0483 159.3 91.6383 159.19 91.1283 159.19C90.6383 159.19 90.2583 159.285 89.9883 159.475C89.7183 159.655 89.5833 159.915 89.5833 160.255C89.5833 160.515 89.6783 160.74 89.8683 160.93C90.0683 161.12 90.3983 161.28 90.8583 161.41L92.0583 161.74C92.7683 161.93 93.3033 162.22 93.6633 162.61C94.0233 163 94.2033 163.47 94.2033 164.02C94.2033 164.69 93.9483 165.215 93.4383 165.595C92.9283 165.965 92.2233 166.15 91.3233 166.15ZM100.762 166C100.722 165.83 100.692 165.635 100.672 165.415C100.662 165.195 100.657 164.915 100.657 164.575H100.582V160.915C100.582 160.335 100.447 159.91 100.177 159.64C99.9172 159.36 99.4922 159.22 98.9022 159.22C98.3222 159.22 97.8572 159.34 97.5072 159.58C97.1672 159.81 96.9772 160.14 96.9372 160.57H95.7822C95.8322 159.83 96.1422 159.25 96.7122 158.83C97.2822 158.41 98.0272 158.2 98.9472 158.2C99.8972 158.2 100.602 158.425 101.062 158.875C101.522 159.325 101.752 160 101.752 160.9V164.575C101.752 164.795 101.767 165.025 101.797 165.265C101.827 165.495 101.867 165.74 101.917 166H100.762ZM98.1372 166.15C97.3472 166.15 96.7172 165.96 96.2472 165.58C95.7872 165.19 95.5572 164.66 95.5572 163.99C95.5572 163.32 95.7872 162.8 96.2472 162.43C96.7072 162.06 97.3772 161.8 98.2572 161.65L100.927 161.2V162.19L98.4372 162.58C97.8772 162.67 97.4522 162.82 97.1622 163.03C96.8722 163.24 96.7272 163.545 96.7272 163.945C96.7272 164.335 96.8572 164.63 97.1172 164.83C97.3872 165.03 97.7822 165.13 98.3022 165.13C98.9722 165.13 99.5172 164.98 99.9372 164.68C100.367 164.37 100.582 163.97 100.582 163.48L100.777 164.545C100.617 165.055 100.302 165.45 99.8322 165.73C99.3722 166.01 98.8072 166.15 98.1372 166.15ZM104.065 166V155.2H105.265V166H104.065ZM107.609 166V164.455H109.154V166H107.609Z" fill="black"/>
<path d="M17.076 96V85.0909H24.1712V86.7475H19.0522V89.7092H23.8036V91.3658H19.0522V94.3434H24.2138V96H17.076ZM29.1383 96.1438C28.4956 96.1438 27.9203 95.9787 27.4125 95.6484C26.9047 95.3182 26.5034 94.8388 26.2086 94.2102C25.9139 93.5817 25.7665 92.8182 25.7665 91.9197C25.7665 91.0107 25.9157 90.2436 26.214 89.6186C26.5158 88.9901 26.9224 88.516 27.4338 88.1964C27.9451 87.8732 28.5151 87.7116 29.1436 87.7116C29.623 87.7116 30.0172 87.7933 30.3262 87.9567C30.6351 88.1165 30.8801 88.31 31.0613 88.5373C31.2424 88.761 31.3826 88.9723 31.4821 89.1712H31.562V85.0909H33.4956V96H31.5993V94.7109H31.4821C31.3826 94.9098 31.2388 95.1211 31.0506 95.3448C30.8624 95.565 30.6138 95.7532 30.3049 95.9094C29.9959 96.0657 29.6071 96.1438 29.1383 96.1438ZM29.6763 94.5618C30.0847 94.5618 30.4327 94.4517 30.7203 94.2315C31.008 94.0078 31.2264 93.6971 31.3755 93.2994C31.5247 92.9016 31.5993 92.4382 31.5993 91.9091C31.5993 91.38 31.5247 90.9201 31.3755 90.5295C31.2299 90.1388 31.0133 89.8352 30.7257 89.6186C30.4416 89.402 30.0918 89.2937 29.6763 89.2937C29.2466 89.2937 28.888 89.4055 28.6003 89.6293C28.3127 89.853 28.0961 90.1619 27.9505 90.5561C27.8049 90.9503 27.7321 91.4013 27.7321 91.9091C27.7321 92.4205 27.8049 92.8768 27.9505 93.2781C28.0996 93.6758 28.318 93.9901 28.6056 94.2209C28.8968 94.4482 29.2537 94.5618 29.6763 94.5618ZM39.1086 99.2386C38.4161 99.2386 37.8213 99.1445 37.3241 98.9563C36.827 98.7717 36.4275 98.5231 36.1256 98.2106C35.8238 97.8981 35.6143 97.5518 35.4971 97.1719L37.2336 96.7511C37.3117 96.9109 37.4253 97.0689 37.5745 97.2251C37.7236 97.3849 37.9243 97.5163 38.1764 97.6193C38.4321 97.7259 38.7535 97.7791 39.1405 97.7791C39.6874 97.7791 40.1402 97.646 40.4988 97.3796C40.8575 97.1168 41.0368 96.6836 41.0368 96.0799V94.5298H40.941C40.8415 94.7287 40.6959 94.9329 40.5042 95.1424C40.316 95.3519 40.0656 95.5277 39.7531 95.6697C39.4442 95.8118 39.0553 95.8828 38.5866 95.8828C37.958 95.8828 37.3881 95.7354 36.8767 95.4407C36.3689 95.1424 35.964 94.6985 35.6622 94.109C35.3639 93.516 35.2148 92.7738 35.2148 91.8825C35.2148 90.984 35.3639 90.2259 35.6622 89.608C35.964 88.9865 36.3706 88.516 36.882 88.1964C37.3934 87.8732 37.9633 87.7116 38.5919 87.7116C39.0713 87.7116 39.4655 87.7933 39.7744 87.9567C40.0869 88.1165 40.3355 88.31 40.5202 88.5373C40.7048 88.761 40.8451 88.9723 40.941 89.1712H41.0475V87.8182H42.9491V96.1332C42.9491 96.8327 42.7822 97.4116 42.4484 97.8697C42.1146 98.3278 41.6583 98.6705 41.0795 98.8977C40.5006 99.125 39.8437 99.2386 39.1086 99.2386ZM39.1246 94.37C39.5329 94.37 39.8809 94.2706 40.1686 94.0717C40.4562 93.8729 40.6746 93.587 40.8238 93.2141C40.9729 92.8413 41.0475 92.3938 41.0475 91.8718C41.0475 91.3569 40.9729 90.9059 40.8238 90.5188C40.6782 90.1317 40.4616 89.8317 40.1739 89.6186C39.8898 89.402 39.54 89.2937 39.1246 89.2937C38.6949 89.2937 38.3362 89.4055 38.0486 89.6293C37.7609 89.853 37.5443 90.1602 37.3987 90.5508C37.2531 90.9379 37.1803 91.3782 37.1803 91.8718C37.1803 92.3725 37.2531 92.8111 37.3987 93.1875C37.5479 93.5604 37.7662 93.8516 38.0539 94.0611C38.3451 94.267 38.702 94.37 39.1246 94.37ZM48.5475 96.1598C47.7272 96.1598 47.0187 95.9893 46.4221 95.6484C45.8291 95.304 45.3728 94.8175 45.0532 94.1889C44.7336 93.5568 44.5738 92.8129 44.5738 91.957C44.5738 91.1154 44.7336 90.3768 45.0532 89.7411C45.3763 89.1019 45.8273 88.6048 46.4062 88.2496C46.985 87.891 47.665 87.7116 48.4463 87.7116C48.9506 87.7116 49.4264 87.7933 49.8738 87.9567C50.3248 88.1165 50.7226 88.3651 51.067 88.7024C51.415 89.0398 51.6885 89.4695 51.8873 89.9915C52.0862 90.5099 52.1856 91.1278 52.1856 91.8452V92.4364H45.4793V91.1367H50.3373C50.3337 90.7674 50.2538 90.4389 50.0976 90.1513C49.9413 89.8601 49.7229 89.631 49.4424 89.4641C49.1654 89.2972 48.8422 89.2138 48.4729 89.2138C48.0787 89.2138 47.7325 89.3097 47.4342 89.5014C47.1359 89.6896 46.9033 89.9382 46.7364 90.2472C46.5731 90.5526 46.4896 90.8881 46.4861 91.2539V92.3885C46.4861 92.8643 46.5731 93.2727 46.7471 93.6136C46.9211 93.951 47.1643 94.2102 47.4768 94.3913C47.7893 94.5689 48.1551 94.6577 48.5741 94.6577C48.8547 94.6577 49.1086 94.6186 49.3358 94.5405C49.5631 94.4588 49.7602 94.3398 49.9271 94.1836C50.094 94.0273 50.2201 93.8338 50.3053 93.603L52.1057 93.8054C51.9921 94.2812 51.7755 94.6967 51.4559 95.0518C51.1398 95.4034 50.735 95.6768 50.2414 95.8722C49.7478 96.0639 49.1831 96.1598 48.5475 96.1598ZM57.1435 86.7475V85.0909H65.8473V86.7475H62.4755V96H60.5153V86.7475H57.1435ZM69.8224 96.1598C69.0233 96.1598 68.3309 95.984 67.7449 95.6325C67.159 95.2809 66.7045 94.7891 66.3813 94.157C66.0617 93.5249 65.9019 92.7862 65.9019 91.9411C65.9019 91.0959 66.0617 90.3555 66.3813 89.7198C66.7045 89.0842 67.159 88.5906 67.7449 88.239C68.3309 87.8874 69.0233 87.7116 69.8224 87.7116C70.6214 87.7116 71.3138 87.8874 71.8998 88.239C72.4857 88.5906 72.9385 89.0842 73.2581 89.7198C73.5812 90.3555 73.7428 91.0959 73.7428 91.9411C73.7428 92.7862 73.5812 93.5249 73.2581 94.157C72.9385 94.7891 72.4857 95.2809 71.8998 95.6325C71.3138 95.984 70.6214 96.1598 69.8224 96.1598ZM69.833 94.6151C70.2662 94.6151 70.6285 94.4961 70.9197 94.2582C71.2108 94.0167 71.4275 93.6935 71.5695 93.2887C71.7151 92.8839 71.7879 92.4329 71.7879 91.9357C71.7879 91.435 71.7151 90.9822 71.5695 90.5774C71.4275 90.169 71.2108 89.8441 70.9197 89.6026C70.6285 89.3612 70.2662 89.2404 69.833 89.2404C69.3891 89.2404 69.0198 89.3612 68.7251 89.6026C68.4339 89.8441 68.2155 90.169 68.0699 90.5774C67.9278 90.9822 67.8568 91.435 67.8568 91.9357C67.8568 92.4329 67.9278 92.8839 68.0699 93.2887C68.2155 93.6935 68.4339 94.0167 68.7251 94.2582C69.0198 94.4961 69.3891 94.6151 69.833 94.6151ZM78.9483 96.1598C78.1493 96.1598 77.4569 95.984 76.8709 95.6325C76.285 95.2809 75.8304 94.7891 75.5073 94.157C75.1877 93.5249 75.0279 92.7862 75.0279 91.9411C75.0279 91.0959 75.1877 90.3555 75.5073 89.7198C75.8304 89.0842 76.285 88.5906 76.8709 88.239C77.4569 87.8874 78.1493 87.7116 78.9483 87.7116C79.7473 87.7116 80.4398 87.8874 81.0257 88.239C81.6117 88.5906 82.0645 89.0842 82.3841 89.7198C82.7072 90.3555 82.8688 91.0959 82.8688 91.9411C82.8688 92.7862 82.7072 93.5249 82.3841 94.157C82.0645 94.7891 81.6117 95.2809 81.0257 95.6325C80.4398 95.984 79.7473 96.1598 78.9483 96.1598ZM78.959 94.6151C79.3922 94.6151 79.7544 94.4961 80.0456 94.2582C80.3368 94.0167 80.5534 93.6935 80.6955 93.2887C80.8411 92.8839 80.9139 92.4329 80.9139 91.9357C80.9139 91.435 80.8411 90.9822 80.6955 90.5774C80.5534 90.169 80.3368 89.8441 80.0456 89.6026C79.7544 89.3612 79.3922 89.2404 78.959 89.2404C78.5151 89.2404 78.1458 89.3612 77.851 89.6026C77.5598 89.8441 77.3414 90.169 77.1958 90.5774C77.0538 90.9822 76.9828 91.435 76.9828 91.9357C76.9828 92.4329 77.0538 92.8839 77.1958 93.2887C77.3414 93.6935 77.5598 94.0167 77.851 94.2582C78.1458 94.4961 78.5151 94.6151 78.959 94.6151ZM86.4337 85.0909V96H84.5054V85.0909H86.4337ZM94.8832 89.9808L93.1254 90.1726C93.0756 89.995 92.9886 89.8281 92.8643 89.6719C92.7436 89.5156 92.5803 89.3896 92.3743 89.2937C92.1683 89.1978 91.9162 89.1499 91.6179 89.1499C91.2166 89.1499 90.8793 89.2369 90.6058 89.4109C90.3359 89.5849 90.2028 89.8104 90.2063 90.0874C90.2028 90.3253 90.2898 90.5188 90.4673 90.668C90.6484 90.8171 90.9467 90.9396 91.3622 91.0355L92.7578 91.3338C93.532 91.5007 94.1072 91.7653 94.4837 92.1275C94.8636 92.4897 95.0554 92.9638 95.0589 93.5497C95.0554 94.0646 94.9045 94.5192 94.6062 94.9134C94.3114 95.304 93.9013 95.6094 93.3757 95.8295C92.8501 96.0497 92.2464 96.1598 91.5646 96.1598C90.5632 96.1598 89.7571 95.9503 89.1463 95.5312C88.5355 95.1087 88.1715 94.521 88.0543 93.7681L89.9347 93.587C90.0199 93.9563 90.201 94.2351 90.478 94.4233C90.755 94.6115 91.1154 94.7056 91.5593 94.7056C92.0174 94.7056 92.3849 94.6115 92.6619 94.4233C92.9425 94.2351 93.0827 94.0025 93.0827 93.7255C93.0827 93.4911 92.9922 93.2976 92.8111 93.1449C92.6335 92.9922 92.3565 92.875 91.9801 92.7933L90.5845 92.5004C89.7997 92.337 89.2191 92.0618 88.8427 91.6747C88.4663 91.2841 88.2798 90.7905 88.2834 90.1939C88.2798 89.6896 88.4165 89.2528 88.6935 88.8835C88.9741 88.5107 89.3629 88.223 89.8601 88.0206C90.3608 87.8146 90.9379 87.7116 91.5913 87.7116C92.5501 87.7116 93.3047 87.9158 93.8551 88.3242C94.4091 88.7326 94.7518 89.2848 94.8832 89.9808Z" fill="black"/>
<path d="M47.3375 31.7625C47.0092 32.0818 46.8253 32.5112 46.8253 32.9583C46.8253 33.4055 47.0092 33.8348 47.3375 34.1542L50.2042 36.8875C50.5391 37.2005 50.9893 37.3758 51.4583 37.3758C51.9273 37.3758 52.3776 37.2005 52.7125 36.8875L59.4671 30.4471C60.368 32.3454 60.6408 34.4604 60.2491 36.5102C59.8574 38.5601 58.8198 40.4474 57.2746 41.9207C55.7294 43.3941 53.75 44.3834 51.6001 44.7569C49.4503 45.1304 47.2321 44.8703 45.2412 44.0113L32.8608 55.8158C32.148 56.4954 31.1813 56.8773 30.1733 56.8773C29.1653 56.8773 28.1986 56.4954 27.4858 55.8158C26.773 55.1362 26.3726 54.2145 26.3726 53.2533C26.3726 52.2922 26.773 51.3705 27.4858 50.6908L39.8662 38.8863C38.9653 36.988 38.6925 34.873 39.0842 32.8231C39.476 30.7733 40.5135 28.8859 42.0587 27.4126C43.6039 25.9393 45.5833 24.95 47.7332 24.5765C49.883 24.203 52.1012 24.4631 54.0921 25.3221L47.3375 31.7625Z" stroke="white" stroke-width="4" stroke-linecap="round" stroke-linejoin="round"/>
</svg>
